<?xml version="1.0" encoding="utf-8" standalone="no"?>
<!DOCTYPE svg PUBLIC "-//W3C//DTD SVG 1.1//EN"
  "http://www.w3.org/Graphics/SVG/1.1/DTD/svg11.dtd">
<svg height="266.51625pt" version="1.1" viewBox="0 0 272.391896 266.51625" width="272.391896pt" xmlns="http://www.w3.org/2000/svg" xmlns:xlink="http://www.w3.org/1999/xlink">
 <metadata>
  <rdf:RDF xmlns:cc="http://creativecommons.org/ns#" xmlns:dc="http://purl.org/dc/elements/1.1/" xmlns:rdf="http://www.w3.org/1999/02/22-rdf-syntax-ns#">
   <cc:Work>
    <dc:type rdf:resource="http://purl.org/dc/dcmitype/StillImage"/>
    <dc:date>2023-11-02T16:56:19.090925</dc:date>
    <dc:format>image/svg+xml</dc:format>
    <dc:creator>
     <cc:Agent>
      <dc:title>Matplotlib v3.4.3, https://matplotlib.org/</dc:title>
     </cc:Agent>
    </dc:creator>
   </cc:Work>
  </rdf:RDF>
 </metadata>
 <defs>
  <style type="text/css">*{stroke-linecap:butt;stroke-linejoin:round;}</style>
 </defs>
 <g id="figure_1">
  <g id="patch_1">
   <path d="M 0 266.51625 
L 272.391896 266.51625 
L 272.391896 0 
L 0 0 
z
" style="fill:#ffffff;"/>
  </g>
  <g id="axes_1">
   <g id="patch_2">
    <path d="M 40.603125 228.96 
L 263.803125 228.96 
L 263.803125 7.2 
L 40.603125 7.2 
z
" style="fill:#ffffff;"/>
   </g>
   <g id="matplotlib.axis_1">
    <g id="xtick_1">
     <g id="line2d_1">
      <defs>
       <path d="M 0 0 
L 0 3.5 
" id="m9fcb016b5d" style="stroke:#000000;stroke-width:0.8;"/>
      </defs>
      <g>
       <use style="stroke:#000000;stroke-width:0.8;" x="54.049979" xlink:href="#m9fcb016b5d" y="228.96"/>
      </g>
     </g>
     <g id="text_1">
      <!-- 5.33375 -->
      <g transform="translate(33.373417 243.558437)scale(0.1 -0.1)">
       <defs>
        <path d="M 691 4666 
L 3169 4666 
L 3169 4134 
L 1269 4134 
L 1269 2991 
Q 1406 3038 1543 3061 
Q 1681 3084 1819 3084 
Q 2600 3084 3056 2656 
Q 3513 2228 3513 1497 
Q 3513 744 3044 326 
Q 2575 -91 1722 -91 
Q 1428 -91 1123 -41 
Q 819 9 494 109 
L 494 744 
Q 775 591 1075 516 
Q 1375 441 1709 441 
Q 2250 441 2565 725 
Q 2881 1009 2881 1497 
Q 2881 1984 2565 2268 
Q 2250 2553 1709 2553 
Q 1456 2553 1204 2497 
Q 953 2441 691 2322 
L 691 4666 
z
" id="DejaVuSans-35" transform="scale(0.015625)"/>
        <path d="M 684 794 
L 1344 794 
L 1344 0 
L 684 0 
L 684 794 
z
" id="DejaVuSans-2e" transform="scale(0.015625)"/>
        <path d="M 2597 2516 
Q 3050 2419 3304 2112 
Q 3559 1806 3559 1356 
Q 3559 666 3084 287 
Q 2609 -91 1734 -91 
Q 1441 -91 1130 -33 
Q 819 25 488 141 
L 488 750 
Q 750 597 1062 519 
Q 1375 441 1716 441 
Q 2309 441 2620 675 
Q 2931 909 2931 1356 
Q 2931 1769 2642 2001 
Q 2353 2234 1838 2234 
L 1294 2234 
L 1294 2753 
L 1863 2753 
Q 2328 2753 2575 2939 
Q 2822 3125 2822 3475 
Q 2822 3834 2567 4026 
Q 2313 4219 1838 4219 
Q 1578 4219 1281 4162 
Q 984 4106 628 3988 
L 628 4550 
Q 988 4650 1302 4700 
Q 1616 4750 1894 4750 
Q 2613 4750 3031 4423 
Q 3450 4097 3450 3541 
Q 3450 3153 3228 2886 
Q 3006 2619 2597 2516 
z
" id="DejaVuSans-33" transform="scale(0.015625)"/>
        <path d="M 525 4666 
L 3525 4666 
L 3525 4397 
L 1831 0 
L 1172 0 
L 2766 4134 
L 525 4134 
L 525 4666 
z
" id="DejaVuSans-37" transform="scale(0.015625)"/>
       </defs>
       <use xlink:href="#DejaVuSans-35"/>
       <use x="63.623047" xlink:href="#DejaVuSans-2e"/>
       <use x="95.410156" xlink:href="#DejaVuSans-33"/>
       <use x="159.033203" xlink:href="#DejaVuSans-33"/>
       <use x="222.65625" xlink:href="#DejaVuSans-33"/>
       <use x="286.279297" xlink:href="#DejaVuSans-37"/>
       <use x="349.902344" xlink:href="#DejaVuSans-35"/>
      </g>
     </g>
    </g>
    <g id="xtick_2">
     <g id="line2d_2">
      <g>
       <use style="stroke:#000000;stroke-width:0.8;" x="92.14305" xlink:href="#m9fcb016b5d" y="228.96"/>
      </g>
     </g>
     <g id="text_2">
      <!-- 5.33400 -->
      <g transform="translate(71.466487 243.558437)scale(0.1 -0.1)">
       <defs>
        <path d="M 2419 4116 
L 825 1625 
L 2419 1625 
L 2419 4116 
z
M 2253 4666 
L 3047 4666 
L 3047 1625 
L 3713 1625 
L 3713 1100 
L 3047 1100 
L 3047 0 
L 2419 0 
L 2419 1100 
L 313 1100 
L 313 1709 
L 2253 4666 
z
" id="DejaVuSans-34" transform="scale(0.015625)"/>
        <path d="M 2034 4250 
Q 1547 4250 1301 3770 
Q 1056 3291 1056 2328 
Q 1056 1369 1301 889 
Q 1547 409 2034 409 
Q 2525 409 2770 889 
Q 3016 1369 3016 2328 
Q 3016 3291 2770 3770 
Q 2525 4250 2034 4250 
z
M 2034 4750 
Q 2819 4750 3233 4129 
Q 3647 3509 3647 2328 
Q 3647 1150 3233 529 
Q 2819 -91 2034 -91 
Q 1250 -91 836 529 
Q 422 1150 422 2328 
Q 422 3509 836 4129 
Q 1250 4750 2034 4750 
z
" id="DejaVuSans-30" transform="scale(0.015625)"/>
       </defs>
       <use xlink:href="#DejaVuSans-35"/>
       <use x="63.623047" xlink:href="#DejaVuSans-2e"/>
       <use x="95.410156" xlink:href="#DejaVuSans-33"/>
       <use x="159.033203" xlink:href="#DejaVuSans-33"/>
       <use x="222.65625" xlink:href="#DejaVuSans-34"/>
       <use x="286.279297" xlink:href="#DejaVuSans-30"/>
       <use x="349.902344" xlink:href="#DejaVuSans-30"/>
      </g>
     </g>
    </g>
    <g id="xtick_3">
     <g id="line2d_3">
      <g>
       <use style="stroke:#000000;stroke-width:0.8;" x="130.236121" xlink:href="#m9fcb016b5d" y="228.96"/>
      </g>
     </g>
     <g id="text_3">
      <!-- 5.33425 -->
      <g transform="translate(109.559558 243.558437)scale(0.1 -0.1)">
       <defs>
        <path d="M 1228 531 
L 3431 531 
L 3431 0 
L 469 0 
L 469 531 
Q 828 903 1448 1529 
Q 2069 2156 2228 2338 
Q 2531 2678 2651 2914 
Q 2772 3150 2772 3378 
Q 2772 3750 2511 3984 
Q 2250 4219 1831 4219 
Q 1534 4219 1204 4116 
Q 875 4013 500 3803 
L 500 4441 
Q 881 4594 1212 4672 
Q 1544 4750 1819 4750 
Q 2544 4750 2975 4387 
Q 3406 4025 3406 3419 
Q 3406 3131 3298 2873 
Q 3191 2616 2906 2266 
Q 2828 2175 2409 1742 
Q 1991 1309 1228 531 
z
" id="DejaVuSans-32" transform="scale(0.015625)"/>
       </defs>
       <use xlink:href="#DejaVuSans-35"/>
       <use x="63.623047" xlink:href="#DejaVuSans-2e"/>
       <use x="95.410156" xlink:href="#DejaVuSans-33"/>
       <use x="159.033203" xlink:href="#DejaVuSans-33"/>
       <use x="222.65625" xlink:href="#DejaVuSans-34"/>
       <use x="286.279297" xlink:href="#DejaVuSans-32"/>
       <use x="349.902344" xlink:href="#DejaVuSans-35"/>
      </g>
     </g>
    </g>
    <g id="xtick_4">
     <g id="line2d_4">
      <g>
       <use style="stroke:#000000;stroke-width:0.8;" x="168.329192" xlink:href="#m9fcb016b5d" y="228.96"/>
      </g>
     </g>
     <g id="text_4">
      <!-- 5.33450 -->
      <g transform="translate(147.652629 243.558437)scale(0.1 -0.1)">
       <use xlink:href="#DejaVuSans-35"/>
       <use x="63.623047" xlink:href="#DejaVuSans-2e"/>
       <use x="95.410156" xlink:href="#DejaVuSans-33"/>
       <use x="159.033203" xlink:href="#DejaVuSans-33"/>
       <use x="222.65625" xlink:href="#DejaVuSans-34"/>
       <use x="286.279297" xlink:href="#DejaVuSans-35"/>
       <use x="349.902344" xlink:href="#DejaVuSans-30"/>
      </g>
     </g>
    </g>
    <g id="xtick_5">
     <g id="line2d_5">
      <g>
       <use style="stroke:#000000;stroke-width:0.8;" x="206.422263" xlink:href="#m9fcb016b5d" y="228.96"/>
      </g>
     </g>
     <g id="text_5">
      <!-- 5.33475 -->
      <g transform="translate(185.7457 243.558437)scale(0.1 -0.1)">
       <use xlink:href="#DejaVuSans-35"/>
       <use x="63.623047" xlink:href="#DejaVuSans-2e"/>
       <use x="95.410156" xlink:href="#DejaVuSans-33"/>
       <use x="159.033203" xlink:href="#DejaVuSans-33"/>
       <use x="222.65625" xlink:href="#DejaVuSans-34"/>
       <use x="286.279297" xlink:href="#DejaVuSans-37"/>
       <use x="349.902344" xlink:href="#DejaVuSans-35"/>
      </g>
     </g>
    </g>
    <g id="xtick_6">
     <g id="line2d_6">
      <g>
       <use style="stroke:#000000;stroke-width:0.8;" x="244.515333" xlink:href="#m9fcb016b5d" y="228.96"/>
      </g>
     </g>
     <g id="text_6">
      <!-- 5.33500 -->
      <g transform="translate(223.838771 243.558437)scale(0.1 -0.1)">
       <use xlink:href="#DejaVuSans-35"/>
       <use x="63.623047" xlink:href="#DejaVuSans-2e"/>
       <use x="95.410156" xlink:href="#DejaVuSans-33"/>
       <use x="159.033203" xlink:href="#DejaVuSans-33"/>
       <use x="222.65625" xlink:href="#DejaVuSans-35"/>
       <use x="286.279297" xlink:href="#DejaVuSans-30"/>
       <use x="349.902344" xlink:href="#DejaVuSans-30"/>
      </g>
     </g>
    </g>
    <g id="text_7">
     <!-- time(min) -->
     <g transform="translate(127.577344 257.236562)scale(0.1 -0.1)">
      <defs>
       <path d="M 1172 4494 
L 1172 3500 
L 2356 3500 
L 2356 3053 
L 1172 3053 
L 1172 1153 
Q 1172 725 1289 603 
Q 1406 481 1766 481 
L 2356 481 
L 2356 0 
L 1766 0 
Q 1100 0 847 248 
Q 594 497 594 1153 
L 594 3053 
L 172 3053 
L 172 3500 
L 594 3500 
L 594 4494 
L 1172 4494 
z
" id="DejaVuSans-74" transform="scale(0.015625)"/>
       <path d="M 603 3500 
L 1178 3500 
L 1178 0 
L 603 0 
L 603 3500 
z
M 603 4863 
L 1178 4863 
L 1178 4134 
L 603 4134 
L 603 4863 
z
" id="DejaVuSans-69" transform="scale(0.015625)"/>
       <path d="M 3328 2828 
Q 3544 3216 3844 3400 
Q 4144 3584 4550 3584 
Q 5097 3584 5394 3201 
Q 5691 2819 5691 2113 
L 5691 0 
L 5113 0 
L 5113 2094 
Q 5113 2597 4934 2840 
Q 4756 3084 4391 3084 
Q 3944 3084 3684 2787 
Q 3425 2491 3425 1978 
L 3425 0 
L 2847 0 
L 2847 2094 
Q 2847 2600 2669 2842 
Q 2491 3084 2119 3084 
Q 1678 3084 1418 2786 
Q 1159 2488 1159 1978 
L 1159 0 
L 581 0 
L 581 3500 
L 1159 3500 
L 1159 2956 
Q 1356 3278 1631 3431 
Q 1906 3584 2284 3584 
Q 2666 3584 2933 3390 
Q 3200 3197 3328 2828 
z
" id="DejaVuSans-6d" transform="scale(0.015625)"/>
       <path d="M 3597 1894 
L 3597 1613 
L 953 1613 
Q 991 1019 1311 708 
Q 1631 397 2203 397 
Q 2534 397 2845 478 
Q 3156 559 3463 722 
L 3463 178 
Q 3153 47 2828 -22 
Q 2503 -91 2169 -91 
Q 1331 -91 842 396 
Q 353 884 353 1716 
Q 353 2575 817 3079 
Q 1281 3584 2069 3584 
Q 2775 3584 3186 3129 
Q 3597 2675 3597 1894 
z
M 3022 2063 
Q 3016 2534 2758 2815 
Q 2500 3097 2075 3097 
Q 1594 3097 1305 2825 
Q 1016 2553 972 2059 
L 3022 2063 
z
" id="DejaVuSans-65" transform="scale(0.015625)"/>
       <path d="M 1984 4856 
Q 1566 4138 1362 3434 
Q 1159 2731 1159 2009 
Q 1159 1288 1364 580 
Q 1569 -128 1984 -844 
L 1484 -844 
Q 1016 -109 783 600 
Q 550 1309 550 2009 
Q 550 2706 781 3412 
Q 1013 4119 1484 4856 
L 1984 4856 
z
" id="DejaVuSans-28" transform="scale(0.015625)"/>
       <path d="M 3513 2113 
L 3513 0 
L 2938 0 
L 2938 2094 
Q 2938 2591 2744 2837 
Q 2550 3084 2163 3084 
Q 1697 3084 1428 2787 
Q 1159 2491 1159 1978 
L 1159 0 
L 581 0 
L 581 3500 
L 1159 3500 
L 1159 2956 
Q 1366 3272 1645 3428 
Q 1925 3584 2291 3584 
Q 2894 3584 3203 3211 
Q 3513 2838 3513 2113 
z
" id="DejaVuSans-6e" transform="scale(0.015625)"/>
       <path d="M 513 4856 
L 1013 4856 
Q 1481 4119 1714 3412 
Q 1947 2706 1947 2009 
Q 1947 1309 1714 600 
Q 1481 -109 1013 -844 
L 513 -844 
Q 928 -128 1133 580 
Q 1338 1288 1338 2009 
Q 1338 2731 1133 3434 
Q 928 4138 513 4856 
z
" id="DejaVuSans-29" transform="scale(0.015625)"/>
      </defs>
      <use xlink:href="#DejaVuSans-74"/>
      <use x="39.208984" xlink:href="#DejaVuSans-69"/>
      <use x="66.992188" xlink:href="#DejaVuSans-6d"/>
      <use x="164.404297" xlink:href="#DejaVuSans-65"/>
      <use x="225.927734" xlink:href="#DejaVuSans-28"/>
      <use x="264.941406" xlink:href="#DejaVuSans-6d"/>
      <use x="362.353516" xlink:href="#DejaVuSans-69"/>
      <use x="390.136719" xlink:href="#DejaVuSans-6e"/>
      <use x="453.515625" xlink:href="#DejaVuSans-29"/>
     </g>
    </g>
   </g>
   <g id="matplotlib.axis_2">
    <g id="ytick_1">
     <g id="line2d_7">
      <defs>
       <path d="M 0 0 
L -3.5 0 
" id="mc7bfcf533e" style="stroke:#000000;stroke-width:0.8;"/>
      </defs>
      <g>
       <use style="stroke:#000000;stroke-width:0.8;" x="40.603125" xlink:href="#mc7bfcf533e" y="218.88"/>
      </g>
     </g>
     <g id="text_8">
      <!-- 0 -->
      <g transform="translate(27.240625 222.679219)scale(0.1 -0.1)">
       <use xlink:href="#DejaVuSans-30"/>
      </g>
     </g>
    </g>
    <g id="ytick_2">
     <g id="line2d_8">
      <g>
       <use style="stroke:#000000;stroke-width:0.8;" x="40.603125" xlink:href="#mc7bfcf533e" y="185.28"/>
      </g>
     </g>
     <g id="text_9">
      <!-- 10 -->
      <g transform="translate(20.878125 189.079219)scale(0.1 -0.1)">
       <defs>
        <path d="M 794 531 
L 1825 531 
L 1825 4091 
L 703 3866 
L 703 4441 
L 1819 4666 
L 2450 4666 
L 2450 531 
L 3481 531 
L 3481 0 
L 794 0 
L 794 531 
z
" id="DejaVuSans-31" transform="scale(0.015625)"/>
       </defs>
       <use xlink:href="#DejaVuSans-31"/>
       <use x="63.623047" xlink:href="#DejaVuSans-30"/>
      </g>
     </g>
    </g>
    <g id="ytick_3">
     <g id="line2d_9">
      <g>
       <use style="stroke:#000000;stroke-width:0.8;" x="40.603125" xlink:href="#mc7bfcf533e" y="151.68"/>
      </g>
     </g>
     <g id="text_10">
      <!-- 20 -->
      <g transform="translate(20.878125 155.479219)scale(0.1 -0.1)">
       <use xlink:href="#DejaVuSans-32"/>
       <use x="63.623047" xlink:href="#DejaVuSans-30"/>
      </g>
     </g>
    </g>
    <g id="ytick_4">
     <g id="line2d_10">
      <g>
       <use style="stroke:#000000;stroke-width:0.8;" x="40.603125" xlink:href="#mc7bfcf533e" y="118.08"/>
      </g>
     </g>
     <g id="text_11">
      <!-- 30 -->
      <g transform="translate(20.878125 121.879219)scale(0.1 -0.1)">
       <use xlink:href="#DejaVuSans-33"/>
       <use x="63.623047" xlink:href="#DejaVuSans-30"/>
      </g>
     </g>
    </g>
    <g id="ytick_5">
     <g id="line2d_11">
      <g>
       <use style="stroke:#000000;stroke-width:0.8;" x="40.603125" xlink:href="#mc7bfcf533e" y="84.48"/>
      </g>
     </g>
     <g id="text_12">
      <!-- 40 -->
      <g transform="translate(20.878125 88.279219)scale(0.1 -0.1)">
       <use xlink:href="#DejaVuSans-34"/>
       <use x="63.623047" xlink:href="#DejaVuSans-30"/>
      </g>
     </g>
    </g>
    <g id="ytick_6">
     <g id="line2d_12">
      <g>
       <use style="stroke:#000000;stroke-width:0.8;" x="40.603125" xlink:href="#mc7bfcf533e" y="50.88"/>
      </g>
     </g>
     <g id="text_13">
      <!-- 50 -->
      <g transform="translate(20.878125 54.679219)scale(0.1 -0.1)">
       <use xlink:href="#DejaVuSans-35"/>
       <use x="63.623047" xlink:href="#DejaVuSans-30"/>
      </g>
     </g>
    </g>
    <g id="ytick_7">
     <g id="line2d_13">
      <g>
       <use style="stroke:#000000;stroke-width:0.8;" x="40.603125" xlink:href="#mc7bfcf533e" y="17.28"/>
      </g>
     </g>
     <g id="text_14">
      <!-- 60 -->
      <g transform="translate(20.878125 21.079219)scale(0.1 -0.1)">
       <defs>
        <path d="M 2113 2584 
Q 1688 2584 1439 2293 
Q 1191 2003 1191 1497 
Q 1191 994 1439 701 
Q 1688 409 2113 409 
Q 2538 409 2786 701 
Q 3034 994 3034 1497 
Q 3034 2003 2786 2293 
Q 2538 2584 2113 2584 
z
M 3366 4563 
L 3366 3988 
Q 3128 4100 2886 4159 
Q 2644 4219 2406 4219 
Q 1781 4219 1451 3797 
Q 1122 3375 1075 2522 
Q 1259 2794 1537 2939 
Q 1816 3084 2150 3084 
Q 2853 3084 3261 2657 
Q 3669 2231 3669 1497 
Q 3669 778 3244 343 
Q 2819 -91 2113 -91 
Q 1303 -91 875 529 
Q 447 1150 447 2328 
Q 447 3434 972 4092 
Q 1497 4750 2381 4750 
Q 2619 4750 2861 4703 
Q 3103 4656 3366 4563 
z
" id="DejaVuSans-36" transform="scale(0.015625)"/>
       </defs>
       <use xlink:href="#DejaVuSans-36"/>
       <use x="63.623047" xlink:href="#DejaVuSans-30"/>
      </g>
     </g>
    </g>
    <g id="text_15">
     <!-- counts  -->
     <g transform="translate(14.798438 136.38)rotate(-90)scale(0.1 -0.1)">
      <defs>
       <path d="M 3122 3366 
L 3122 2828 
Q 2878 2963 2633 3030 
Q 2388 3097 2138 3097 
Q 1578 3097 1268 2742 
Q 959 2388 959 1747 
Q 959 1106 1268 751 
Q 1578 397 2138 397 
Q 2388 397 2633 464 
Q 2878 531 3122 666 
L 3122 134 
Q 2881 22 2623 -34 
Q 2366 -91 2075 -91 
Q 1284 -91 818 406 
Q 353 903 353 1747 
Q 353 2603 823 3093 
Q 1294 3584 2113 3584 
Q 2378 3584 2631 3529 
Q 2884 3475 3122 3366 
z
" id="DejaVuSans-63" transform="scale(0.015625)"/>
       <path d="M 1959 3097 
Q 1497 3097 1228 2736 
Q 959 2375 959 1747 
Q 959 1119 1226 758 
Q 1494 397 1959 397 
Q 2419 397 2687 759 
Q 2956 1122 2956 1747 
Q 2956 2369 2687 2733 
Q 2419 3097 1959 3097 
z
M 1959 3584 
Q 2709 3584 3137 3096 
Q 3566 2609 3566 1747 
Q 3566 888 3137 398 
Q 2709 -91 1959 -91 
Q 1206 -91 779 398 
Q 353 888 353 1747 
Q 353 2609 779 3096 
Q 1206 3584 1959 3584 
z
" id="DejaVuSans-6f" transform="scale(0.015625)"/>
       <path d="M 544 1381 
L 544 3500 
L 1119 3500 
L 1119 1403 
Q 1119 906 1312 657 
Q 1506 409 1894 409 
Q 2359 409 2629 706 
Q 2900 1003 2900 1516 
L 2900 3500 
L 3475 3500 
L 3475 0 
L 2900 0 
L 2900 538 
Q 2691 219 2414 64 
Q 2138 -91 1772 -91 
Q 1169 -91 856 284 
Q 544 659 544 1381 
z
M 1991 3584 
L 1991 3584 
z
" id="DejaVuSans-75" transform="scale(0.015625)"/>
       <path d="M 2834 3397 
L 2834 2853 
Q 2591 2978 2328 3040 
Q 2066 3103 1784 3103 
Q 1356 3103 1142 2972 
Q 928 2841 928 2578 
Q 928 2378 1081 2264 
Q 1234 2150 1697 2047 
L 1894 2003 
Q 2506 1872 2764 1633 
Q 3022 1394 3022 966 
Q 3022 478 2636 193 
Q 2250 -91 1575 -91 
Q 1294 -91 989 -36 
Q 684 19 347 128 
L 347 722 
Q 666 556 975 473 
Q 1284 391 1588 391 
Q 1994 391 2212 530 
Q 2431 669 2431 922 
Q 2431 1156 2273 1281 
Q 2116 1406 1581 1522 
L 1381 1569 
Q 847 1681 609 1914 
Q 372 2147 372 2553 
Q 372 3047 722 3315 
Q 1072 3584 1716 3584 
Q 2034 3584 2315 3537 
Q 2597 3491 2834 3397 
z
" id="DejaVuSans-73" transform="scale(0.015625)"/>
       <path id="DejaVuSans-20" transform="scale(0.015625)"/>
      </defs>
      <use xlink:href="#DejaVuSans-63"/>
      <use x="54.980469" xlink:href="#DejaVuSans-6f"/>
      <use x="116.162109" xlink:href="#DejaVuSans-75"/>
      <use x="179.541016" xlink:href="#DejaVuSans-6e"/>
      <use x="242.919922" xlink:href="#DejaVuSans-74"/>
      <use x="282.128906" xlink:href="#DejaVuSans-73"/>
      <use x="334.228516" xlink:href="#DejaVuSans-20"/>
     </g>
    </g>
   </g>
   <g id="LineCollection_1">
    <path clip-path="url(#p7bec3ae697)" d="M 151.56824 112.061392 
L 152.83801 112.061392 
" style="fill:none;stroke:#ff0000;stroke-width:1.5;"/>
   </g>
   <g id="line2d_14">
    <path clip-path="url(#p7bec3ae697)" d="M 50.74858 212.16 
L 51.002533 195.36 
L 51.256487 198.72 
L 51.510441 185.28 
L 51.764395 192 
L 52.018349 161.76 
L 52.272302 188.64 
L 52.526256 168.48 
L 52.78021 198.72 
L 53.034164 195.36 
L 53.288118 205.44 
L 53.542071 181.92 
L 53.796025 205.44 
L 54.049979 192 
L 54.303933 188.64 
L 54.557887 205.44 
L 54.81184 188.64 
L 55.065794 192 
L 55.319748 192 
L 55.573702 171.84 
L 55.827656 192 
L 56.081609 181.92 
L 56.335563 181.92 
L 56.589517 168.48 
L 56.843471 181.92 
L 57.097425 175.2 
L 57.351378 171.84 
L 57.859286 205.44 
L 58.11324 178.56 
L 58.367194 212.16 
L 58.621148 195.36 
L 58.875101 212.16 
L 59.129055 185.28 
L 59.383009 175.2 
L 59.636963 175.2 
L 59.890917 161.76 
L 60.14487 212.16 
L 60.398824 181.92 
L 60.906732 212.16 
L 61.160686 178.56 
L 61.414639 171.84 
L 61.668593 195.36 
L 61.922547 178.56 
L 62.176501 185.28 
L 62.430455 198.72 
L 62.684408 178.56 
L 62.938362 175.2 
L 63.192316 158.4 
L 63.44627 165.12 
L 63.700224 192 
L 63.954177 185.28 
L 64.208131 168.48 
L 64.462085 185.28 
L 64.716039 178.56 
L 64.969993 148.32 
L 65.223946 188.64 
L 65.4779 188.64 
L 65.731854 192 
L 65.985808 185.28 
L 66.239762 171.84 
L 66.493716 188.64 
L 66.747669 195.36 
L 67.001623 192 
L 67.255577 178.56 
L 67.509531 185.28 
L 68.017438 155.04 
L 68.271392 198.72 
L 68.525346 185.28 
L 68.7793 185.28 
L 69.033254 161.76 
L 69.795115 205.44 
L 70.049069 198.72 
L 70.303023 175.2 
L 70.556976 212.16 
L 71.064884 181.92 
L 71.318838 205.44 
L 71.572792 171.84 
L 71.826745 161.76 
L 72.080699 212.16 
L 72.334653 205.44 
L 72.588607 205.44 
L 72.842561 192 
L 73.096514 198.72 
L 73.350468 198.72 
L 73.604422 192 
L 73.858376 148.32 
L 74.11233 195.36 
L 74.366283 202.08 
L 74.620237 161.76 
L 74.874191 175.2 
L 75.128145 148.32 
L 75.382099 188.64 
L 75.636053 148.32 
L 75.890006 192 
L 76.397914 161.76 
L 76.905822 212.16 
L 77.159775 212.16 
L 77.413729 185.28 
L 77.667683 198.72 
L 77.921637 192 
L 78.175591 205.44 
L 78.429544 181.92 
L 78.683498 205.44 
L 78.937452 175.2 
L 79.191406 175.2 
L 79.44536 178.56 
L 79.699313 168.48 
L 79.953267 178.56 
L 80.207221 212.16 
L 80.461175 192 
L 80.715129 212.16 
L 80.969082 212.16 
L 81.223036 205.44 
L 81.47699 175.2 
L 81.730944 188.64 
L 81.984898 212.16 
L 82.238851 168.48 
L 82.746759 198.72 
L 83.000713 185.28 
L 83.254667 185.28 
L 83.508621 198.72 
L 83.762574 148.32 
L 84.016528 185.28 
L 84.270482 198.72 
L 84.524436 185.28 
L 84.77839 198.72 
L 85.032343 205.44 
L 85.286297 195.36 
L 85.540251 192 
L 85.794205 175.2 
L 86.048159 212.16 
L 86.302112 192 
L 86.556066 205.44 
L 87.063974 161.76 
L 87.571881 205.44 
L 87.825835 185.28 
L 88.079789 185.28 
L 88.333743 181.92 
L 88.587697 205.44 
L 88.84165 192 
L 89.095604 208.8 
L 89.349558 198.72 
L 89.603512 134.88 
L 89.857466 192 
L 90.111419 178.56 
L 90.365373 171.84 
L 90.619327 158.4 
L 90.873281 192 
L 91.127235 178.56 
L 91.381188 192 
L 91.635142 178.56 
L 91.889096 198.72 
L 92.397004 151.68 
L 92.650958 178.56 
L 92.904911 185.28 
L 93.158865 168.48 
L 93.412819 185.28 
L 93.666773 151.68 
L 93.920727 192 
L 94.17468 205.44 
L 94.428634 195.36 
L 94.682588 178.56 
L 94.936542 205.44 
L 95.190496 148.32 
L 95.444449 205.44 
L 95.698403 205.44 
L 96.206311 168.48 
L 96.714218 198.72 
L 97.222126 175.2 
L 97.47608 178.56 
L 97.730034 178.56 
L 97.983987 165.12 
L 98.491895 205.44 
L 98.745849 185.28 
L 98.999803 192 
L 99.253756 195.36 
L 99.761664 178.56 
L 100.015618 192 
L 100.269572 198.72 
L 100.523526 175.2 
L 100.777479 205.44 
L 101.031433 185.28 
L 101.285387 178.56 
L 101.539341 198.72 
L 101.793295 171.84 
L 102.047248 198.72 
L 102.301202 178.56 
L 102.555156 168.48 
L 102.80911 192 
L 103.063064 192 
L 103.317017 198.72 
L 103.570971 185.28 
L 103.824925 198.72 
L 104.078879 188.64 
L 104.332833 151.68 
L 104.586786 192 
L 104.84074 212.16 
L 105.094694 175.2 
L 105.348648 188.64 
L 105.602602 155.04 
L 105.856555 151.68 
L 106.110509 185.28 
L 106.364463 198.72 
L 106.618417 178.56 
L 106.872371 192 
L 107.126324 168.48 
L 107.380278 171.84 
L 107.634232 212.16 
L 107.888186 148.32 
L 108.14214 168.48 
L 108.396093 212.16 
L 108.650047 192 
L 108.904001 181.92 
L 109.157955 212.16 
L 109.411909 165.12 
L 109.665863 188.64 
L 109.919816 168.48 
L 110.17377 198.72 
L 110.427724 178.56 
L 110.681678 198.72 
L 110.935632 185.28 
L 111.189585 161.76 
L 111.443539 185.28 
L 111.697493 148.32 
L 111.951447 185.28 
L 112.205401 185.28 
L 112.459354 181.92 
L 112.713308 185.28 
L 112.967262 192 
L 113.47517 148.32 
L 113.729123 195.36 
L 113.983077 158.4 
L 114.237031 212.16 
L 114.490985 141.6 
L 114.744939 171.84 
L 114.998892 185.28 
L 115.5068 161.76 
L 116.014708 198.72 
L 116.268661 178.56 
L 116.776569 212.16 
L 117.030523 181.92 
L 117.284477 168.48 
L 117.792384 175.2 
L 118.046338 175.2 
L 118.300292 198.72 
L 118.554246 185.28 
L 118.8082 181.92 
L 119.062153 188.64 
L 119.316107 198.72 
L 119.570061 185.28 
L 119.824015 185.28 
L 120.077969 188.64 
L 120.331922 185.28 
L 120.585876 185.28 
L 120.83983 198.72 
L 121.093784 158.4 
L 121.347738 171.84 
L 121.601691 198.72 
L 121.855645 151.68 
L 122.109599 198.72 
L 122.363553 181.92 
L 122.617507 205.44 
L 122.87146 158.4 
L 123.125414 175.2 
L 123.379368 181.92 
L 123.633322 165.12 
L 124.141229 195.36 
L 124.395183 181.92 
L 124.649137 192 
L 124.903091 195.36 
L 125.157045 205.44 
L 125.410998 168.48 
L 125.918906 212.16 
L 126.17286 171.84 
L 126.426814 205.44 
L 126.934721 178.56 
L 127.188675 192 
L 127.442629 175.2 
L 127.696583 185.28 
L 127.950537 185.28 
L 128.20449 192 
L 128.458444 205.44 
L 128.712398 168.48 
L 128.966352 168.48 
L 129.220306 198.72 
L 129.474259 151.68 
L 129.728213 198.72 
L 129.982167 188.64 
L 130.236121 198.72 
L 130.490075 198.72 
L 130.744028 188.64 
L 130.997982 198.72 
L 131.251936 192 
L 131.50589 192 
L 131.759844 205.44 
L 132.013797 212.16 
L 132.267751 175.2 
L 132.521705 181.92 
L 132.775659 198.72 
L 133.029613 192 
L 133.283566 168.48 
L 133.53752 192 
L 133.791474 188.64 
L 134.045428 141.6 
L 134.299382 212.16 
L 134.553335 205.44 
L 134.807289 161.76 
L 135.061243 185.28 
L 135.315197 181.92 
L 135.569151 171.84 
L 135.823105 198.72 
L 136.077058 198.72 
L 136.331012 144.96 
L 136.584966 188.64 
L 136.83892 185.28 
L 137.092874 188.64 
L 137.346827 212.16 
L 137.854735 155.04 
L 138.108689 192 
L 138.616596 144.96 
L 139.124504 171.84 
L 139.378458 205.44 
L 139.632412 171.84 
L 139.886365 185.28 
L 140.140319 212.16 
L 140.394273 198.72 
L 140.648227 198.72 
L 140.902181 181.92 
L 141.156134 198.72 
L 141.410088 178.56 
L 141.917996 205.44 
L 142.17195 192 
L 142.425903 171.84 
L 142.679857 212.16 
L 143.187765 171.84 
L 143.441719 141.6 
L 143.695673 155.04 
L 143.949626 188.64 
L 144.20358 185.28 
L 144.457534 185.28 
L 144.711488 192 
L 144.965442 151.68 
L 145.219395 198.72 
L 145.473349 188.64 
L 145.727303 188.64 
L 145.981257 198.72 
L 146.235211 185.28 
L 146.489164 185.28 
L 146.743118 178.56 
L 146.997072 158.4 
L 147.251026 188.64 
L 147.50498 168.48 
L 148.012887 198.72 
L 148.266841 185.28 
L 148.520795 181.92 
L 148.774749 175.2 
L 149.028702 175.2 
L 149.282656 165.12 
L 149.53661 178.56 
L 149.790564 205.44 
L 150.044518 181.92 
L 150.298471 192 
L 150.552425 185.28 
L 150.806379 192 
L 151.060333 185.28 
L 151.314287 134.88 
L 151.56824 124.8 
L 151.822194 81.12 
L 152.076148 114.72 
L 152.330102 17.28 
L 152.584056 50.88 
L 152.83801 124.8 
L 153.091963 158.4 
L 153.345917 141.6 
L 153.853825 185.28 
L 154.361732 198.72 
L 154.615686 178.56 
L 154.86964 188.64 
L 155.123594 185.28 
L 155.377548 188.64 
L 155.631501 198.72 
L 155.885455 192 
L 156.139409 192 
L 156.393363 195.36 
L 156.647317 212.16 
L 156.90127 165.12 
L 157.155224 198.72 
L 157.409178 155.04 
L 157.663132 192 
L 157.917086 212.16 
L 158.424993 165.12 
L 158.678947 192 
L 158.932901 175.2 
L 159.186855 171.84 
L 159.440808 151.68 
L 159.694762 171.84 
L 159.948716 148.32 
L 160.20267 138.24 
L 160.710577 27.36 
L 160.964531 118.08 
L 161.218485 111.36 
L 161.726393 168.48 
L 161.980347 178.56 
L 162.2343 155.04 
L 162.488254 185.28 
L 162.742208 148.32 
L 162.996162 158.4 
L 163.250116 205.44 
L 163.758023 178.56 
L 164.011977 205.44 
L 164.519885 171.84 
L 164.773838 175.2 
L 165.281746 205.44 
L 165.5357 188.64 
L 165.789654 205.44 
L 166.297561 148.32 
L 166.805469 198.72 
L 167.059423 175.2 
L 167.313376 192 
L 167.56733 192 
L 167.821284 168.48 
L 168.075238 178.56 
L 168.329192 158.4 
L 168.583145 212.16 
L 168.837099 144.96 
L 169.091053 178.56 
L 169.345007 192 
L 169.598961 158.4 
L 169.852915 205.44 
L 170.106868 198.72 
L 170.360822 212.16 
L 170.614776 175.2 
L 170.86873 181.92 
L 171.122684 192 
L 171.376637 185.28 
L 171.884545 205.44 
L 172.138499 198.72 
L 172.392453 155.04 
L 172.646406 205.44 
L 172.90036 175.2 
L 173.154314 131.52 
L 173.408268 198.72 
L 173.662222 212.16 
L 173.916175 161.76 
L 174.424083 185.28 
L 174.931991 171.84 
L 175.693852 192 
L 175.947806 168.48 
L 176.20176 178.56 
L 176.455713 205.44 
L 176.709667 212.16 
L 176.963621 178.56 
L 177.217575 175.2 
L 177.471529 195.36 
L 177.725482 195.36 
L 177.979436 212.16 
L 178.23339 185.28 
L 178.487344 171.84 
L 178.741298 205.44 
L 178.995252 188.64 
L 179.249205 212.16 
L 179.503159 212.16 
L 179.757113 181.92 
L 180.011067 212.16 
L 180.265021 218.88 
L 180.518974 175.2 
L 180.772928 181.92 
L 181.026882 212.16 
L 181.280836 192 
L 181.53479 181.92 
L 181.788743 181.92 
L 182.042697 171.84 
L 182.296651 198.72 
L 182.550605 185.28 
L 182.804559 195.36 
L 183.312466 151.68 
L 183.56642 198.72 
L 183.820374 192 
L 184.074328 192 
L 184.328281 185.28 
L 184.582235 165.12 
L 184.836189 185.28 
L 185.090143 185.28 
L 185.344097 161.76 
L 185.59805 155.04 
L 185.852004 198.72 
L 186.105958 198.72 
L 186.359912 205.44 
L 186.613866 168.48 
L 186.86782 168.48 
L 187.121773 205.44 
L 187.375727 198.72 
L 187.629681 161.76 
L 187.883635 205.44 
L 188.137589 181.92 
L 188.391542 138.24 
L 188.89945 192 
L 189.153404 171.84 
L 189.407358 192 
L 189.661311 171.84 
L 189.915265 198.72 
L 190.169219 175.2 
L 190.423173 212.16 
L 190.677127 192 
L 191.185034 205.44 
L 191.438988 205.44 
L 191.692942 178.56 
L 191.946896 195.36 
L 192.200849 192 
L 192.454803 198.72 
L 192.708757 198.72 
L 192.962711 175.2 
L 193.470618 175.2 
L 193.724572 192 
L 193.978526 181.92 
L 194.23248 188.64 
L 194.740387 205.44 
L 194.994341 168.48 
L 195.248295 195.36 
L 195.502249 178.56 
L 195.756203 192 
L 196.010157 198.72 
L 196.26411 171.84 
L 196.518064 198.72 
L 196.772018 212.16 
L 197.025972 165.12 
L 197.279926 175.2 
L 197.533879 144.96 
L 197.787833 165.12 
L 198.041787 198.72 
L 198.295741 161.76 
L 198.549695 205.44 
L 198.803648 205.44 
L 199.057602 165.12 
L 199.311556 192 
L 199.56551 195.36 
L 199.819464 168.48 
L 200.073417 192 
L 200.327371 198.72 
L 200.581325 185.28 
L 200.835279 192 
L 201.089233 151.68 
L 201.343186 188.64 
L 201.59714 171.84 
L 202.105048 212.16 
L 202.359002 205.44 
L 202.612955 155.04 
L 202.866909 185.28 
L 203.120863 175.2 
L 203.374817 181.92 
L 203.628771 175.2 
L 204.136678 195.36 
L 204.390632 171.84 
L 204.644586 171.84 
L 204.89854 192 
L 205.152494 181.92 
L 205.406447 192 
L 205.660401 151.68 
L 205.914355 178.56 
L 206.168309 192 
L 206.422263 178.56 
L 206.676216 192 
L 206.93017 195.36 
L 207.184124 192 
L 207.438078 181.92 
L 207.692032 188.64 
L 207.945985 212.16 
L 208.199939 165.12 
L 208.453893 185.28 
L 208.707847 192 
L 208.961801 192 
L 209.215754 205.44 
L 209.469708 198.72 
L 209.723662 158.4 
L 209.977616 155.04 
L 210.485523 198.72 
L 210.739477 185.28 
L 210.993431 198.72 
L 211.247385 205.44 
L 211.501339 185.28 
L 211.755292 205.44 
L 212.009246 171.84 
L 212.2632 212.16 
L 212.517154 185.28 
L 212.771108 205.44 
L 213.025062 185.28 
L 213.279015 175.2 
L 213.532969 208.8 
L 213.786923 178.56 
L 214.040877 178.56 
L 214.294831 165.12 
L 214.548784 212.16 
L 214.802738 185.28 
L 215.056692 205.44 
L 215.310646 171.84 
L 215.5646 165.12 
L 215.818553 205.44 
L 216.072507 205.44 
L 216.326461 171.84 
L 216.580415 212.16 
L 216.834369 212.16 
L 217.088322 188.64 
L 217.342276 192 
L 217.850184 192 
L 218.104138 178.56 
L 218.358091 198.72 
L 218.612045 192 
L 218.865999 165.12 
L 219.119953 202.08 
L 219.373907 165.12 
L 219.62786 165.12 
L 219.881814 192 
L 220.135768 205.44 
L 220.389722 195.36 
L 220.897629 158.4 
L 221.151583 205.44 
L 221.405537 198.72 
L 221.913445 198.72 
L 222.167399 185.28 
L 222.421352 192 
L 222.675306 192 
L 222.92926 178.56 
L 223.183214 181.92 
L 223.437168 198.72 
L 223.691121 155.04 
L 223.945075 205.44 
L 224.199029 205.44 
L 224.706937 138.24 
L 224.96089 205.44 
L 225.214844 205.44 
L 225.468798 175.2 
L 225.722752 205.44 
L 225.976706 198.72 
L 226.230659 165.12 
L 226.484613 192 
L 226.738567 192 
L 226.992521 185.28 
L 227.500428 192 
L 227.754382 198.72 
L 228.008336 158.4 
L 228.26229 212.16 
L 228.516244 205.44 
L 228.770197 218.88 
L 229.278105 171.84 
L 229.532059 175.2 
L 229.786013 212.16 
L 230.039967 192 
L 230.29392 192 
L 230.547874 178.56 
L 230.801828 188.64 
L 231.055782 161.76 
L 231.309736 185.28 
L 231.563689 185.28 
L 231.817643 195.36 
L 232.071597 192 
L 232.325551 212.16 
L 232.833458 181.92 
L 233.341366 144.96 
L 233.59532 195.36 
L 233.849274 185.28 
L 234.103227 185.28 
L 234.357181 195.36 
L 234.611135 181.92 
L 234.865089 175.2 
L 235.119043 205.44 
L 235.372996 195.36 
L 235.62695 192 
L 235.880904 198.72 
L 236.134858 198.72 
L 236.388812 168.48 
L 236.896719 198.72 
L 237.150673 168.48 
L 237.404627 205.44 
L 237.912534 205.44 
L 238.420442 155.04 
L 238.674396 205.44 
L 238.92835 198.72 
L 239.436257 171.84 
L 239.690211 185.28 
L 239.944165 185.28 
L 240.452073 198.72 
L 240.706026 128.16 
L 240.95998 192 
L 241.467888 205.44 
L 241.721842 192 
L 241.975795 212.16 
L 242.229749 212.16 
L 242.483703 198.72 
L 242.737657 165.12 
L 243.245564 212.16 
L 243.499518 175.2 
L 244.007426 195.36 
L 244.26138 198.72 
L 244.769287 198.72 
L 245.023241 175.2 
L 245.277195 178.56 
L 245.531149 175.2 
L 245.785102 178.56 
L 246.29301 192 
L 246.546964 161.76 
L 246.800918 192 
L 247.054872 185.28 
L 247.308825 171.84 
L 247.562779 175.2 
L 247.816733 198.72 
L 248.070687 171.84 
L 248.324641 178.56 
L 248.578594 178.56 
L 248.832548 192 
L 249.086502 218.88 
L 249.340456 198.72 
L 249.59441 198.72 
L 249.848363 205.44 
L 250.102317 171.84 
L 250.356271 202.08 
L 250.610225 198.72 
L 250.864179 192 
L 251.118132 212.16 
L 251.62604 165.12 
L 252.133948 198.72 
L 252.387901 192 
L 252.641855 198.72 
L 252.895809 202.08 
L 253.403717 161.76 
L 253.65767 165.12 
L 253.65767 165.12 
" style="fill:none;stroke:#0000ff;stroke-linecap:square;stroke-opacity:0.5;stroke-width:1.5;"/>
   </g>
   <g id="line2d_15">
    <path clip-path="url(#p7bec3ae697)" d="M 50.74858 196.730045 
L 51.002533 196.871798 
L 51.256487 193.914714 
L 52.018349 180.164625 
L 52.272302 180.064136 
L 52.526256 183.302713 
L 53.034164 192.91998 
L 53.288118 195.555347 
L 53.542071 196.389497 
L 53.796025 196.320272 
L 54.303933 195.463785 
L 54.557887 194.641619 
L 54.81184 193.020465 
L 56.589517 176.580436 
L 56.843471 176.219153 
L 57.097425 177.924687 
L 57.605332 187.446256 
L 58.11324 197.323683 
L 58.367194 199.775694 
L 58.621148 199.335227 
L 58.875101 195.309681 
L 59.383009 182.573567 
L 59.636963 179.918655 
L 59.890917 181.940357 
L 60.398824 191.784009 
L 60.652778 194.18015 
L 60.906732 193.22536 
L 61.414639 186.819153 
L 61.668593 185.477102 
L 61.922547 185.434619 
L 62.176501 185.251558 
L 62.430455 183.455413 
L 63.192316 173.00908 
L 63.44627 173.89587 
L 63.954177 178.020888 
L 64.208131 177.705229 
L 64.716039 174.872283 
L 64.969993 175.519727 
L 65.731854 184.901021 
L 66.493716 187.341846 
L 66.747669 187.77346 
L 67.001623 186.272255 
L 67.763485 176.090382 
L 68.017438 176.055017 
L 68.525346 179.267868 
L 68.7793 179.473581 
L 69.033254 180.286798 
L 69.287207 183.513351 
L 69.795115 193.006015 
L 70.049069 195.397939 
L 70.303023 196.082906 
L 70.556976 195.575846 
L 70.81093 193.617716 
L 71.318838 187.054866 
L 71.572792 185.59314 
L 71.826745 187.900048 
L 72.334653 198.536591 
L 72.588607 200.78361 
L 72.842561 199.858619 
L 73.096514 196.646866 
L 73.858376 183.037612 
L 74.366283 178.857963 
L 75.128145 167.799071 
L 75.382099 167.658688 
L 75.636053 169.528116 
L 76.14396 176.57258 
L 76.651868 189.074723 
L 76.905822 195.762732 
L 77.159775 199.404214 
L 77.413729 199.797052 
L 77.921637 197.305078 
L 78.175591 195.348899 
L 78.429544 192.215336 
L 79.191406 178.120362 
L 79.44536 176.822121 
L 79.699313 179.632531 
L 80.715129 204.686863 
L 80.969082 204.130846 
L 81.984898 189.495281 
L 82.238851 188.09296 
L 82.492805 187.660779 
L 82.746759 187.591524 
L 83.000713 186.61708 
L 83.762574 180.386274 
L 84.016528 182.534072 
L 84.77839 195.451168 
L 85.032343 196.830656 
L 85.286297 196.210374 
L 85.540251 194.989106 
L 85.794205 194.59638 
L 86.048159 194.67218 
L 86.302112 193.367317 
L 87.063974 182.381784 
L 87.317928 183.076201 
L 88.587697 195.356156 
L 88.84165 195.632392 
L 89.095604 192.124738 
L 89.857466 174.302879 
L 90.111419 172.746758 
L 90.365373 172.990095 
L 90.619327 175.190752 
L 91.381188 185.057855 
L 91.635142 184.793648 
L 91.889096 181.908821 
L 92.397004 173.986802 
L 92.650958 172.802198 
L 92.904911 173.200766 
L 93.158865 174.070863 
L 93.412819 175.783429 
L 93.666773 179.464578 
L 94.17468 189.405206 
L 94.428634 190.941701 
L 94.682588 189.748055 
L 94.936542 187.865702 
L 95.190496 187.284769 
L 95.444449 188.189322 
L 95.698403 188.580881 
L 96.460265 184.762348 
L 96.714218 184.324962 
L 96.968172 182.718634 
L 97.47608 177.750807 
L 97.730034 177.163772 
L 97.983987 179.187897 
L 98.745849 190.680262 
L 98.999803 191.221608 
L 99.761664 188.166296 
L 100.015618 188.642389 
L 100.523526 190.040659 
L 100.777479 189.883193 
L 101.285387 187.534333 
L 102.047248 183.480407 
L 102.301202 182.78618 
L 102.555156 183.720994 
L 103.317017 191.376315 
L 103.570971 190.848347 
L 104.332833 184.577359 
L 104.586786 185.364899 
L 104.84074 185.35317 
L 105.094694 182.104281 
L 105.602602 172.336737 
L 105.856555 172.39447 
L 106.618417 183.3283 
L 106.872371 182.80596 
L 107.380278 179.624235 
L 107.634232 178.80701 
L 107.888186 179.407168 
L 108.14214 182.628235 
L 108.650047 190.775317 
L 108.904001 191.224246 
L 109.157955 189.116519 
L 109.665863 183.758358 
L 109.919816 183.724146 
L 110.427724 185.859899 
L 110.681678 184.509357 
L 111.443539 173.2197 
L 111.697493 173.278441 
L 112.459354 182.228361 
L 112.713308 181.757513 
L 113.47517 172.940522 
L 113.729123 173.423122 
L 113.983077 174.489884 
L 114.237031 174.194675 
L 114.744939 171.811317 
L 114.998892 172.182792 
L 115.252846 173.733687 
L 115.5068 176.955549 
L 116.268661 191.321012 
L 116.522615 192.888919 
L 116.776569 190.876098 
L 117.53843 176.408251 
L 117.792384 176.805952 
L 118.8082 188.278959 
L 119.062153 189.453009 
L 119.316107 189.88039 
L 119.570061 189.425415 
L 120.331922 186.388869 
L 120.585876 184.3742 
L 121.093784 178.430692 
L 121.347738 177.18488 
L 121.601691 177.985035 
L 122.363553 184.063464 
L 122.617507 182.529381 
L 123.125414 176.225882 
L 123.379368 175.447203 
L 123.633322 177.096675 
L 124.649137 191.235869 
L 124.903091 192.4249 
L 125.157045 192.214528 
L 125.410998 191.685579 
L 125.664952 191.897681 
L 125.918906 192.357793 
L 126.17286 192.081034 
L 126.426814 190.811884 
L 127.188675 184.682331 
L 127.442629 184.386802 
L 127.696583 185.505508 
L 127.950537 187.199041 
L 128.20449 187.78647 
L 128.458444 185.949124 
L 128.966352 179.340323 
L 129.220306 178.551392 
L 129.474259 180.481275 
L 130.236121 193.235662 
L 130.490075 195.068746 
L 131.759844 197.653487 
L 132.013797 195.825558 
L 132.775659 187.602341 
L 133.53752 181.386657 
L 133.791474 180.799266 
L 134.045428 182.065221 
L 134.299382 184.418906 
L 134.553335 185.379716 
L 135.315197 182.154738 
L 135.569151 182.480502 
L 135.823105 182.441181 
L 136.331012 180.685585 
L 136.584966 182.485649 
L 137.092874 188.99633 
L 137.346827 188.201415 
L 137.854735 176.563524 
L 138.362643 164.501378 
L 138.616596 162.386437 
L 138.87055 165.269531 
L 139.886365 193.014313 
L 140.140319 196.796864 
L 140.394273 197.646688 
L 140.648227 195.820971 
L 141.156134 191.130384 
L 141.410088 190.872657 
L 141.917996 193.313871 
L 142.17195 193.526114 
L 142.425903 192.320416 
L 142.679857 188.869887 
L 143.441719 167.731747 
L 143.695673 167.881045 
L 144.457534 181.078402 
L 144.965442 183.056672 
L 145.727303 190.271828 
L 145.981257 189.800193 
L 146.235211 186.853247 
L 146.743118 178.016693 
L 146.997072 175.856259 
L 147.251026 176.680311 
L 148.012887 185.503576 
L 148.266841 184.649409 
L 149.028702 176.057429 
L 149.282656 177.514739 
L 150.044518 191.42125 
L 150.298471 192.82922 
L 150.552425 190.461283 
L 150.806379 182.275255 
L 151.314287 144.143534 
L 152.076148 76.974637 
L 152.330102 70.908344 
L 152.584056 80.327225 
L 153.853825 180.237294 
L 154.107779 187.705667 
L 154.361732 190.330448 
L 154.615686 189.944086 
L 154.86964 189.033361 
L 155.123594 189.201709 
L 155.631501 192.622839 
L 155.885455 194.236427 
L 156.139409 194.908792 
L 156.393363 194.02808 
L 157.155224 184.312663 
L 157.409178 184.473945 
L 157.917086 189.396544 
L 158.171039 188.831892 
L 158.678947 182.228728 
L 159.186855 172.380406 
L 159.440808 164.717407 
L 159.694762 153.069947 
L 160.710577 88.224374 
L 160.964531 96.239531 
L 161.980347 164.8322 
L 162.2343 169.02274 
L 162.488254 169.902425 
L 162.742208 171.254849 
L 162.996162 175.421192 
L 163.504069 186.399595 
L 163.758023 188.628725 
L 164.011977 188.18336 
L 164.519885 184.686671 
L 164.773838 185.960547 
L 165.281746 192.375089 
L 165.5357 192.149053 
L 165.789654 188.181519 
L 166.297561 178.446087 
L 166.551515 178.569535 
L 167.059423 183.935975 
L 167.313376 184.548456 
L 167.56733 182.830803 
L 168.075238 176.906347 
L 168.329192 175.335875 
L 168.583145 174.526842 
L 168.837099 174.376743 
L 169.091053 175.881995 
L 169.345007 179.553804 
L 170.106868 194.178912 
L 170.360822 194.088397 
L 170.86873 189.466078 
L 171.122684 189.572492 
L 171.630591 193.128251 
L 171.884545 192.660817 
L 172.138499 189.154395 
L 172.90036 175.570801 
L 173.154314 175.495213 
L 173.662222 180.778624 
L 173.916175 180.558558 
L 174.424083 178.031638 
L 174.678037 177.622248 
L 174.931991 177.943183 
L 175.439898 180.754608 
L 175.947806 184.636554 
L 176.455713 191.490431 
L 176.709667 192.581618 
L 177.217575 190.713004 
L 177.471529 191.652407 
L 177.725482 193.068104 
L 177.979436 193.113598 
L 178.23339 191.971248 
L 178.487344 191.799818 
L 178.741298 194.018711 
L 179.249205 201.287108 
L 179.503159 203.121963 
L 179.757113 203.338854 
L 180.011067 202.273572 
L 181.788743 184.768119 
L 182.042697 184.49584 
L 182.296651 185.112097 
L 182.550605 184.824012 
L 183.058512 180.723089 
L 183.312466 180.74303 
L 183.820374 185.840995 
L 184.074328 185.937288 
L 184.582235 179.964636 
L 185.090143 174.556479 
L 185.344097 174.366326 
L 185.59805 177.645108 
L 186.105958 187.945293 
L 186.359912 189.028924 
L 186.613866 187.918266 
L 186.86782 187.400989 
L 187.121773 187.849109 
L 187.375727 187.346112 
L 187.629681 184.783822 
L 188.391542 171.351839 
L 188.645496 171.577126 
L 190.169219 191.97314 
L 190.677127 198.504021 
L 190.93108 199.831791 
L 191.185034 199.485102 
L 191.946896 193.96102 
L 192.200849 193.133705 
L 192.454803 191.469651 
L 193.216665 181.05908 
L 193.470618 181.043106 
L 193.724572 183.42142 
L 194.23248 190.054402 
L 194.486434 191.699602 
L 194.740387 191.054231 
L 195.248295 187.599018 
L 195.502249 187.651027 
L 196.26411 191.090918 
L 196.518064 190.159698 
L 196.772018 185.870673 
L 197.279926 171.174405 
L 197.533879 167.952869 
L 197.787833 170.254878 
L 198.549695 187.860165 
L 198.803648 189.599443 
L 199.057602 188.827791 
L 199.311556 187.52087 
L 199.56551 186.798529 
L 199.819464 186.889119 
L 200.073417 187.44346 
L 200.327371 187.083553 
L 200.581325 184.663054 
L 201.089233 178.965955 
L 201.343186 180.453545 
L 202.105048 192.651577 
L 202.359002 190.032774 
L 202.866909 180.332933 
L 203.120863 178.511868 
L 203.374817 178.839227 
L 203.882724 181.876328 
L 204.136678 182.41329 
L 204.89854 181.359576 
L 205.152494 180.246165 
L 205.660401 176.95606 
L 205.914355 178.166732 
L 206.93017 190.499985 
L 207.184124 190.944846 
L 207.438078 190.607476 
L 207.692032 189.98366 
L 208.199939 188.073277 
L 208.453893 188.65929 
L 208.961801 191.669917 
L 209.215754 189.502936 
L 209.723662 177.282898 
L 209.977616 174.767404 
L 210.23157 177.803725 
L 210.993431 194.624462 
L 211.247385 196.351141 
L 211.501339 196.019969 
L 212.009246 194.358713 
L 212.2632 194.385227 
L 212.517154 194.154907 
L 212.771108 192.891507 
L 213.786923 184.590324 
L 214.040877 183.81015 
L 214.294831 185.277271 
L 214.548784 187.84086 
L 214.802738 189.012548 
L 215.056692 187.844734 
L 215.310646 186.113327 
L 215.5646 186.49107 
L 216.580415 199.144118 
L 216.834369 199.514916 
L 217.088322 197.568694 
L 217.59623 192.008916 
L 218.104138 188.789656 
L 218.358091 187.392804 
L 219.373907 179.482997 
L 219.62786 181.230108 
L 220.135768 186.876238 
L 220.389722 186.181167 
L 220.643676 184.528429 
L 220.897629 185.321775 
L 221.659491 195.761855 
L 221.913445 195.289387 
L 222.421352 190.306405 
L 222.92926 185.550861 
L 223.183214 184.458655 
L 223.437168 184.271033 
L 223.691121 184.648942 
L 223.945075 184.564967 
L 224.452983 179.813078 
L 224.706937 179.836109 
L 225.468798 191.73332 
L 225.722752 192.040358 
L 226.484613 186.935769 
L 226.738567 187.057511 
L 227.500428 188.626193 
L 227.754382 189.808233 
L 228.008336 192.718353 
L 228.516244 200.269514 
L 228.770197 199.489241 
L 229.278105 191.208968 
L 229.532059 189.930119 
L 229.786013 190.602543 
L 230.039967 190.355634 
L 230.29392 187.837311 
L 230.801828 180.650191 
L 231.055782 179.762367 
L 231.309736 182.2489 
L 232.071597 196.478196 
L 232.325551 196.05774 
L 232.579505 190.7158 
L 233.087412 175.288648 
L 233.341366 173.175962 
L 233.59532 176.081587 
L 234.103227 184.746956 
L 234.611135 188.295458 
L 235.372996 194.600827 
L 235.62695 194.677554 
L 235.880904 192.801357 
L 236.388812 186.694892 
L 236.642765 185.893831 
L 236.896719 187.493122 
L 237.404627 194.010236 
L 237.658581 195.040987 
L 237.912534 192.569247 
L 238.420442 186.166118 
L 238.674396 186.412319 
L 238.92835 186.961665 
L 239.182304 186.180658 
L 239.690211 184.055622 
L 239.944165 183.236362 
L 240.452073 178.550335 
L 240.706026 178.224927 
L 240.95998 182.707725 
L 241.467888 197.755376 
L 241.721842 202.47595 
L 241.975795 203.721703 
L 242.229749 201.141488 
L 242.737657 191.147552 
L 242.991611 188.93641 
L 243.245564 188.727408 
L 243.499518 189.364075 
L 243.753472 190.944694 
L 244.26138 194.790102 
L 244.515333 193.865557 
L 245.023241 185.19719 
L 245.277195 181.116725 
L 245.531149 179.303499 
L 245.785102 179.536701 
L 246.29301 181.062556 
L 246.546964 181.11111 
L 246.800918 181.015754 
L 247.562779 180.028897 
L 247.816733 180.159007 
L 248.070687 180.702248 
L 248.324641 182.871741 
L 249.340456 201.062031 
L 249.59441 199.839306 
L 250.102317 195.320147 
L 250.356271 195.085922 
L 250.610225 195.595904 
L 250.864179 195.072476 
L 251.118132 192.490467 
L 251.62604 186.367723 
L 251.879994 187.374002 
L 252.387901 193.241015 
L 252.641855 192.937947 
L 252.895809 188.817425 
L 253.403717 175.975418 
L 253.65767 172.700745 
L 253.65767 172.700745 
" style="fill:none;stroke:#000000;stroke-linecap:square;stroke-width:1.5;"/>
   </g>
   <g id="line2d_16">
    <defs>
     <path d="M -5 5 
L 5 -5 
M -5 -5 
L 5 5 
" id="ma83facea20" style="stroke:#ff0000;"/>
    </defs>
    <g clip-path="url(#p7bec3ae697)">
     <use style="fill:#ff0000;stroke:#ff0000;" x="152.330102" xlink:href="#ma83facea20" y="70.908344"/>
    </g>
   </g>
   <g id="patch_3">
    <path d="M 40.603125 228.96 
L 40.603125 7.2 
" style="fill:none;stroke:#000000;stroke-linecap:square;stroke-linejoin:miter;stroke-width:0.8;"/>
   </g>
   <g id="patch_4">
    <path d="M 263.803125 228.96 
L 263.803125 7.2 
" style="fill:none;stroke:#000000;stroke-linecap:square;stroke-linejoin:miter;stroke-width:0.8;"/>
   </g>
   <g id="patch_5">
    <path d="M 40.603125 228.96 
L 263.803125 228.96 
" style="fill:none;stroke:#000000;stroke-linecap:square;stroke-linejoin:miter;stroke-width:0.8;"/>
   </g>
   <g id="patch_6">
    <path d="M 40.603125 7.2 
L 263.803125 7.2 
" style="fill:none;stroke:#000000;stroke-linecap:square;stroke-linejoin:miter;stroke-width:0.8;"/>
   </g>
   <g id="legend_1">
    <g id="patch_7">
     <path d="M 189.265625 44.55625 
L 256.803125 44.55625 
Q 258.803125 44.55625 258.803125 42.55625 
L 258.803125 14.2 
Q 258.803125 12.2 256.803125 12.2 
L 189.265625 12.2 
Q 187.265625 12.2 187.265625 14.2 
L 187.265625 42.55625 
Q 187.265625 44.55625 189.265625 44.55625 
z
" style="fill:#ffffff;opacity:0.8;stroke:#cccccc;stroke-linejoin:miter;"/>
    </g>
    <g id="line2d_17">
     <path d="M 191.265625 20.298437 
L 211.265625 20.298437 
" style="fill:none;stroke:#0000ff;stroke-linecap:square;stroke-opacity:0.5;stroke-width:1.5;"/>
    </g>
    <g id="line2d_18"/>
    <g id="text_16">
     <!-- raw -->
     <g transform="translate(219.265625 23.798437)scale(0.1 -0.1)">
      <defs>
       <path d="M 2631 2963 
Q 2534 3019 2420 3045 
Q 2306 3072 2169 3072 
Q 1681 3072 1420 2755 
Q 1159 2438 1159 1844 
L 1159 0 
L 581 0 
L 581 3500 
L 1159 3500 
L 1159 2956 
Q 1341 3275 1631 3429 
Q 1922 3584 2338 3584 
Q 2397 3584 2469 3576 
Q 2541 3569 2628 3553 
L 2631 2963 
z
" id="DejaVuSans-72" transform="scale(0.015625)"/>
       <path d="M 2194 1759 
Q 1497 1759 1228 1600 
Q 959 1441 959 1056 
Q 959 750 1161 570 
Q 1363 391 1709 391 
Q 2188 391 2477 730 
Q 2766 1069 2766 1631 
L 2766 1759 
L 2194 1759 
z
M 3341 1997 
L 3341 0 
L 2766 0 
L 2766 531 
Q 2569 213 2275 61 
Q 1981 -91 1556 -91 
Q 1019 -91 701 211 
Q 384 513 384 1019 
Q 384 1609 779 1909 
Q 1175 2209 1959 2209 
L 2766 2209 
L 2766 2266 
Q 2766 2663 2505 2880 
Q 2244 3097 1772 3097 
Q 1472 3097 1187 3025 
Q 903 2953 641 2809 
L 641 3341 
Q 956 3463 1253 3523 
Q 1550 3584 1831 3584 
Q 2591 3584 2966 3190 
Q 3341 2797 3341 1997 
z
" id="DejaVuSans-61" transform="scale(0.015625)"/>
       <path d="M 269 3500 
L 844 3500 
L 1563 769 
L 2278 3500 
L 2956 3500 
L 3675 769 
L 4391 3500 
L 4966 3500 
L 4050 0 
L 3372 0 
L 2619 2869 
L 1863 0 
L 1184 0 
L 269 3500 
z
" id="DejaVuSans-77" transform="scale(0.015625)"/>
      </defs>
      <use xlink:href="#DejaVuSans-72"/>
      <use x="41.113281" xlink:href="#DejaVuSans-61"/>
      <use x="102.392578" xlink:href="#DejaVuSans-77"/>
     </g>
    </g>
    <g id="line2d_19">
     <path d="M 191.265625 34.976562 
L 211.265625 34.976562 
" style="fill:none;stroke:#000000;stroke-linecap:square;stroke-width:1.5;"/>
    </g>
    <g id="line2d_20"/>
    <g id="text_17">
     <!-- filtered -->
     <g transform="translate(219.265625 38.476562)scale(0.1 -0.1)">
      <defs>
       <path d="M 2375 4863 
L 2375 4384 
L 1825 4384 
Q 1516 4384 1395 4259 
Q 1275 4134 1275 3809 
L 1275 3500 
L 2222 3500 
L 2222 3053 
L 1275 3053 
L 1275 0 
L 697 0 
L 697 3053 
L 147 3053 
L 147 3500 
L 697 3500 
L 697 3744 
Q 697 4328 969 4595 
Q 1241 4863 1831 4863 
L 2375 4863 
z
" id="DejaVuSans-66" transform="scale(0.015625)"/>
       <path d="M 603 4863 
L 1178 4863 
L 1178 0 
L 603 0 
L 603 4863 
z
" id="DejaVuSans-6c" transform="scale(0.015625)"/>
       <path d="M 2906 2969 
L 2906 4863 
L 3481 4863 
L 3481 0 
L 2906 0 
L 2906 525 
Q 2725 213 2448 61 
Q 2172 -91 1784 -91 
Q 1150 -91 751 415 
Q 353 922 353 1747 
Q 353 2572 751 3078 
Q 1150 3584 1784 3584 
Q 2172 3584 2448 3432 
Q 2725 3281 2906 2969 
z
M 947 1747 
Q 947 1113 1208 752 
Q 1469 391 1925 391 
Q 2381 391 2643 752 
Q 2906 1113 2906 1747 
Q 2906 2381 2643 2742 
Q 2381 3103 1925 3103 
Q 1469 3103 1208 2742 
Q 947 2381 947 1747 
z
" id="DejaVuSans-64" transform="scale(0.015625)"/>
      </defs>
      <use xlink:href="#DejaVuSans-66"/>
      <use x="35.205078" xlink:href="#DejaVuSans-69"/>
      <use x="62.988281" xlink:href="#DejaVuSans-6c"/>
      <use x="90.771484" xlink:href="#DejaVuSans-74"/>
      <use x="129.980469" xlink:href="#DejaVuSans-65"/>
      <use x="191.503906" xlink:href="#DejaVuSans-72"/>
      <use x="230.367188" xlink:href="#DejaVuSans-65"/>
      <use x="291.890625" xlink:href="#DejaVuSans-64"/>
     </g>
    </g>
   </g>
  </g>
 </g>
 <defs>
  <clipPath id="p7bec3ae697">
   <rect height="221.76" width="223.2" x="40.603125" y="7.2"/>
  </clipPath>
 </defs>
</svg>
