<?xml version="1.0" encoding="utf-8" standalone="no"?>
<!DOCTYPE svg PUBLIC "-//W3C//DTD SVG 1.1//EN"
  "http://www.w3.org/Graphics/SVG/1.1/DTD/svg11.dtd">
<svg height="212.99088pt" version="1.1" viewBox="0 0 385.605767 212.99088" width="385.605767pt" xmlns="http://www.w3.org/2000/svg" xmlns:xlink="http://www.w3.org/1999/xlink">
 <metadata>
  <rdf:RDF xmlns:cc="http://creativecommons.org/ns#" xmlns:dc="http://purl.org/dc/elements/1.1/" xmlns:rdf="http://www.w3.org/1999/02/22-rdf-syntax-ns#">
   <cc:Work>
    <dc:type rdf:resource="http://purl.org/dc/dcmitype/StillImage"/>
    <dc:date>2023-11-02T16:56:22.843431</dc:date>
    <dc:format>image/svg+xml</dc:format>
    <dc:creator>
     <cc:Agent>
      <dc:title>Matplotlib v3.4.3, https://matplotlib.org/</dc:title>
     </cc:Agent>
    </dc:creator>
   </cc:Work>
  </rdf:RDF>
 </metadata>
 <defs>
  <style type="text/css">*{stroke-linecap:butt;stroke-linejoin:round;}</style>
 </defs>
 <g id="figure_1">
  <g id="patch_1">
   <path d="M 0 212.99088 
L 385.605767 212.99088 
L 385.605767 0 
L 0 0 
z
" style="fill:#ffffff;"/>
  </g>
  <g id="axes_1">
   <g id="patch_2">
    <path d="M 40.603125 175.43463 
L 375.403125 175.43463 
L 375.403125 9.11463 
L 40.603125 9.11463 
z
" style="fill:#ffffff;"/>
   </g>
   <g id="PathCollection_1">
    <defs>
     <path d="M 0 1.581139 
C 0.419323 1.581139 0.821528 1.41454 1.118034 1.118034 
C 1.41454 0.821528 1.581139 0.419323 1.581139 0 
C 1.581139 -0.419323 1.41454 -0.821528 1.118034 -1.118034 
C 0.821528 -1.41454 0.419323 -1.581139 0 -1.581139 
C -0.419323 -1.581139 -0.821528 -1.41454 -1.118034 -1.118034 
C -1.41454 -0.821528 -1.581139 -0.419323 -1.581139 0 
C -1.581139 0.419323 -1.41454 0.821528 -1.118034 1.118034 
C -0.821528 1.41454 -0.419323 1.581139 0 1.581139 
z
" id="m678ef2bd27" style="stroke:#0000ff;"/>
    </defs>
    <g clip-path="url(#p7c873480ef)">
     <use style="fill:#0000ff;stroke:#0000ff;" x="55.821307" xlink:href="#m678ef2bd27" y="167.87463"/>
     <use style="fill:#0000ff;stroke:#0000ff;" x="57.138898" xlink:href="#m678ef2bd27" y="167.87463"/>
     <use style="fill:#0000ff;stroke:#0000ff;" x="58.45649" xlink:href="#m678ef2bd27" y="167.87463"/>
     <use style="fill:#0000ff;stroke:#0000ff;" x="59.774081" xlink:href="#m678ef2bd27" y="167.87463"/>
     <use style="fill:#0000ff;stroke:#0000ff;" x="61.091673" xlink:href="#m678ef2bd27" y="167.87463"/>
     <use style="fill:#0000ff;stroke:#0000ff;" x="62.409264" xlink:href="#m678ef2bd27" y="167.87463"/>
     <use style="fill:#0000ff;stroke:#0000ff;" x="63.726856" xlink:href="#m678ef2bd27" y="167.87463"/>
     <use style="fill:#0000ff;stroke:#0000ff;" x="65.044447" xlink:href="#m678ef2bd27" y="167.87463"/>
     <use style="fill:#0000ff;stroke:#0000ff;" x="66.362039" xlink:href="#m678ef2bd27" y="167.87463"/>
     <use style="fill:#0000ff;stroke:#0000ff;" x="67.67963" xlink:href="#m678ef2bd27" y="167.87463"/>
     <use style="fill:#0000ff;stroke:#0000ff;" x="68.997222" xlink:href="#m678ef2bd27" y="167.87463"/>
     <use style="fill:#0000ff;stroke:#0000ff;" x="70.314813" xlink:href="#m678ef2bd27" y="71.703662"/>
     <use style="fill:#0000ff;stroke:#0000ff;" x="71.632405" xlink:href="#m678ef2bd27" y="63.960142"/>
     <use style="fill:#0000ff;stroke:#0000ff;" x="72.949996" xlink:href="#m678ef2bd27" y="43.253841"/>
     <use style="fill:#0000ff;stroke:#0000ff;" x="74.267588" xlink:href="#m678ef2bd27" y="50.49746"/>
     <use style="fill:#0000ff;stroke:#0000ff;" x="75.585179" xlink:href="#m678ef2bd27" y="58.731991"/>
     <use style="fill:#0000ff;stroke:#0000ff;" x="76.902771" xlink:href="#m678ef2bd27" y="48.17299"/>
     <use style="fill:#0000ff;stroke:#0000ff;" x="78.220362" xlink:href="#m678ef2bd27" y="62.779947"/>
     <use style="fill:#0000ff;stroke:#0000ff;" x="79.537954" xlink:href="#m678ef2bd27" y="64.243291"/>
     <use style="fill:#0000ff;stroke:#0000ff;" x="80.855545" xlink:href="#m678ef2bd27" y="69.015734"/>
     <use style="fill:#0000ff;stroke:#0000ff;" x="82.173137" xlink:href="#m678ef2bd27" y="16.67463"/>
     <use style="fill:#0000ff;stroke:#0000ff;" x="83.490728" xlink:href="#m678ef2bd27" y="167.87463"/>
     <use style="fill:#0000ff;stroke:#0000ff;" x="84.80832" xlink:href="#m678ef2bd27" y="167.87463"/>
     <use style="fill:#0000ff;stroke:#0000ff;" x="86.125911" xlink:href="#m678ef2bd27" y="58.850701"/>
     <use style="fill:#0000ff;stroke:#0000ff;" x="87.443503" xlink:href="#m678ef2bd27" y="70.68551"/>
     <use style="fill:#0000ff;stroke:#0000ff;" x="88.761094" xlink:href="#m678ef2bd27" y="64.820654"/>
     <use style="fill:#0000ff;stroke:#0000ff;" x="90.078686" xlink:href="#m678ef2bd27" y="95.638402"/>
     <use style="fill:#0000ff;stroke:#0000ff;" x="91.396277" xlink:href="#m678ef2bd27" y="85.81542"/>
     <use style="fill:#0000ff;stroke:#0000ff;" x="92.713869" xlink:href="#m678ef2bd27" y="63.164915"/>
     <use style="fill:#0000ff;stroke:#0000ff;" x="94.03146" xlink:href="#m678ef2bd27" y="65.993017"/>
     <use style="fill:#0000ff;stroke:#0000ff;" x="95.349052" xlink:href="#m678ef2bd27" y="75.833645"/>
     <use style="fill:#0000ff;stroke:#0000ff;" x="96.666643" xlink:href="#m678ef2bd27" y="71.383067"/>
     <use style="fill:#0000ff;stroke:#0000ff;" x="97.984235" xlink:href="#m678ef2bd27" y="65.535481"/>
     <use style="fill:#0000ff;stroke:#0000ff;" x="99.301826" xlink:href="#m678ef2bd27" y="167.87463"/>
     <use style="fill:#0000ff;stroke:#0000ff;" x="100.619418" xlink:href="#m678ef2bd27" y="167.87463"/>
     <use style="fill:#0000ff;stroke:#0000ff;" x="101.937009" xlink:href="#m678ef2bd27" y="167.87463"/>
     <use style="fill:#0000ff;stroke:#0000ff;" x="103.254601" xlink:href="#m678ef2bd27" y="167.87463"/>
     <use style="fill:#0000ff;stroke:#0000ff;" x="104.572192" xlink:href="#m678ef2bd27" y="167.87463"/>
     <use style="fill:#0000ff;stroke:#0000ff;" x="105.889784" xlink:href="#m678ef2bd27" y="167.87463"/>
     <use style="fill:#0000ff;stroke:#0000ff;" x="107.207375" xlink:href="#m678ef2bd27" y="48.327007"/>
     <use style="fill:#0000ff;stroke:#0000ff;" x="108.524967" xlink:href="#m678ef2bd27" y="32.834123"/>
     <use style="fill:#0000ff;stroke:#0000ff;" x="109.842558" xlink:href="#m678ef2bd27" y="50.170146"/>
     <use style="fill:#0000ff;stroke:#0000ff;" x="111.16015" xlink:href="#m678ef2bd27" y="44.664362"/>
     <use style="fill:#0000ff;stroke:#0000ff;" x="112.477741" xlink:href="#m678ef2bd27" y="53.666806"/>
     <use style="fill:#0000ff;stroke:#0000ff;" x="113.795333" xlink:href="#m678ef2bd27" y="56.482327"/>
     <use style="fill:#0000ff;stroke:#0000ff;" x="115.112924" xlink:href="#m678ef2bd27" y="43.047883"/>
     <use style="fill:#0000ff;stroke:#0000ff;" x="116.430516" xlink:href="#m678ef2bd27" y="52.239636"/>
     <use style="fill:#0000ff;stroke:#0000ff;" x="117.748107" xlink:href="#m678ef2bd27" y="54.42704"/>
     <use style="fill:#0000ff;stroke:#0000ff;" x="119.065699" xlink:href="#m678ef2bd27" y="58.29266"/>
     <use style="fill:#0000ff;stroke:#0000ff;" x="120.38329" xlink:href="#m678ef2bd27" y="167.87463"/>
     <use style="fill:#0000ff;stroke:#0000ff;" x="121.700882" xlink:href="#m678ef2bd27" y="167.87463"/>
     <use style="fill:#0000ff;stroke:#0000ff;" x="123.018473" xlink:href="#m678ef2bd27" y="47.104404"/>
     <use style="fill:#0000ff;stroke:#0000ff;" x="124.336065" xlink:href="#m678ef2bd27" y="45.510397"/>
     <use style="fill:#0000ff;stroke:#0000ff;" x="125.653656" xlink:href="#m678ef2bd27" y="65.842695"/>
     <use style="fill:#0000ff;stroke:#0000ff;" x="126.971248" xlink:href="#m678ef2bd27" y="69.892041"/>
     <use style="fill:#0000ff;stroke:#0000ff;" x="128.288839" xlink:href="#m678ef2bd27" y="64.954681"/>
     <use style="fill:#0000ff;stroke:#0000ff;" x="129.606431" xlink:href="#m678ef2bd27" y="63.272384"/>
     <use style="fill:#0000ff;stroke:#0000ff;" x="130.924022" xlink:href="#m678ef2bd27" y="69.982384"/>
     <use style="fill:#0000ff;stroke:#0000ff;" x="132.241614" xlink:href="#m678ef2bd27" y="55.211689"/>
     <use style="fill:#0000ff;stroke:#0000ff;" x="133.559205" xlink:href="#m678ef2bd27" y="69.039729"/>
     <use style="fill:#0000ff;stroke:#0000ff;" x="134.876797" xlink:href="#m678ef2bd27" y="47.647981"/>
     <use style="fill:#0000ff;stroke:#0000ff;" x="136.194388" xlink:href="#m678ef2bd27" y="167.87463"/>
     <use style="fill:#0000ff;stroke:#0000ff;" x="137.51198" xlink:href="#m678ef2bd27" y="167.87463"/>
     <use style="fill:#0000ff;stroke:#0000ff;" x="138.829571" xlink:href="#m678ef2bd27" y="167.87463"/>
     <use style="fill:#0000ff;stroke:#0000ff;" x="140.147163" xlink:href="#m678ef2bd27" y="167.87463"/>
     <use style="fill:#0000ff;stroke:#0000ff;" x="141.464754" xlink:href="#m678ef2bd27" y="55.747208"/>
     <use style="fill:#0000ff;stroke:#0000ff;" x="142.782346" xlink:href="#m678ef2bd27" y="73.431652"/>
     <use style="fill:#0000ff;stroke:#0000ff;" x="144.099937" xlink:href="#m678ef2bd27" y="76.289892"/>
     <use style="fill:#0000ff;stroke:#0000ff;" x="145.417529" xlink:href="#m678ef2bd27" y="62.576639"/>
     <use style="fill:#0000ff;stroke:#0000ff;" x="146.73512" xlink:href="#m678ef2bd27" y="61.562422"/>
     <use style="fill:#0000ff;stroke:#0000ff;" x="148.052712" xlink:href="#m678ef2bd27" y="75.976828"/>
     <use style="fill:#0000ff;stroke:#0000ff;" x="149.370303" xlink:href="#m678ef2bd27" y="59.756867"/>
     <use style="fill:#0000ff;stroke:#0000ff;" x="150.687895" xlink:href="#m678ef2bd27" y="89.068747"/>
     <use style="fill:#0000ff;stroke:#0000ff;" x="152.005486" xlink:href="#m678ef2bd27" y="91.01541"/>
     <use style="fill:#0000ff;stroke:#0000ff;" x="153.323078" xlink:href="#m678ef2bd27" y="61.611595"/>
     <use style="fill:#0000ff;stroke:#0000ff;" x="154.640669" xlink:href="#m678ef2bd27" y="167.87463"/>
     <use style="fill:#0000ff;stroke:#0000ff;" x="155.958261" xlink:href="#m678ef2bd27" y="167.87463"/>
     <use style="fill:#0000ff;stroke:#0000ff;" x="157.275852" xlink:href="#m678ef2bd27" y="81.216732"/>
     <use style="fill:#0000ff;stroke:#0000ff;" x="158.593444" xlink:href="#m678ef2bd27" y="71.976913"/>
     <use style="fill:#0000ff;stroke:#0000ff;" x="159.911035" xlink:href="#m678ef2bd27" y="64.538504"/>
     <use style="fill:#0000ff;stroke:#0000ff;" x="161.228627" xlink:href="#m678ef2bd27" y="61.209027"/>
     <use style="fill:#0000ff;stroke:#0000ff;" x="162.546218" xlink:href="#m678ef2bd27" y="68.908274"/>
     <use style="fill:#0000ff;stroke:#0000ff;" x="163.86381" xlink:href="#m678ef2bd27" y="68.611406"/>
     <use style="fill:#0000ff;stroke:#0000ff;" x="165.181401" xlink:href="#m678ef2bd27" y="55.602366"/>
     <use style="fill:#0000ff;stroke:#0000ff;" x="166.498993" xlink:href="#m678ef2bd27" y="63.3272"/>
     <use style="fill:#0000ff;stroke:#0000ff;" x="167.816584" xlink:href="#m678ef2bd27" y="60.018858"/>
     <use style="fill:#0000ff;stroke:#0000ff;" x="169.134176" xlink:href="#m678ef2bd27" y="66.36189"/>
     <use style="fill:#0000ff;stroke:#0000ff;" x="170.451767" xlink:href="#m678ef2bd27" y="167.87463"/>
     <use style="fill:#0000ff;stroke:#0000ff;" x="171.769359" xlink:href="#m678ef2bd27" y="167.87463"/>
     <use style="fill:#0000ff;stroke:#0000ff;" x="173.08695" xlink:href="#m678ef2bd27" y="167.87463"/>
     <use style="fill:#0000ff;stroke:#0000ff;" x="174.404542" xlink:href="#m678ef2bd27" y="167.87463"/>
     <use style="fill:#0000ff;stroke:#0000ff;" x="175.722133" xlink:href="#m678ef2bd27" y="167.87463"/>
     <use style="fill:#0000ff;stroke:#0000ff;" x="177.039725" xlink:href="#m678ef2bd27" y="68.415042"/>
     <use style="fill:#0000ff;stroke:#0000ff;" x="178.357316" xlink:href="#m678ef2bd27" y="65.739622"/>
     <use style="fill:#0000ff;stroke:#0000ff;" x="179.674908" xlink:href="#m678ef2bd27" y="78.646615"/>
     <use style="fill:#0000ff;stroke:#0000ff;" x="180.992499" xlink:href="#m678ef2bd27" y="77.153766"/>
     <use style="fill:#0000ff;stroke:#0000ff;" x="182.310091" xlink:href="#m678ef2bd27" y="90.373629"/>
     <use style="fill:#0000ff;stroke:#0000ff;" x="183.627682" xlink:href="#m678ef2bd27" y="84.771595"/>
     <use style="fill:#0000ff;stroke:#0000ff;" x="184.945274" xlink:href="#m678ef2bd27" y="64.099886"/>
     <use style="fill:#0000ff;stroke:#0000ff;" x="186.262865" xlink:href="#m678ef2bd27" y="87.895931"/>
     <use style="fill:#0000ff;stroke:#0000ff;" x="187.580457" xlink:href="#m678ef2bd27" y="122.059437"/>
     <use style="fill:#0000ff;stroke:#0000ff;" x="188.898048" xlink:href="#m678ef2bd27" y="97.895186"/>
     <use style="fill:#0000ff;stroke:#0000ff;" x="190.21564" xlink:href="#m678ef2bd27" y="167.87463"/>
     <use style="fill:#0000ff;stroke:#0000ff;" x="191.533231" xlink:href="#m678ef2bd27" y="167.87463"/>
     <use style="fill:#0000ff;stroke:#0000ff;" x="192.850823" xlink:href="#m678ef2bd27" y="93.230147"/>
     <use style="fill:#0000ff;stroke:#0000ff;" x="194.168414" xlink:href="#m678ef2bd27" y="76.6178"/>
     <use style="fill:#0000ff;stroke:#0000ff;" x="195.486006" xlink:href="#m678ef2bd27" y="80.670719"/>
     <use style="fill:#0000ff;stroke:#0000ff;" x="196.803597" xlink:href="#m678ef2bd27" y="86.533116"/>
     <use style="fill:#0000ff;stroke:#0000ff;" x="198.121189" xlink:href="#m678ef2bd27" y="82.061246"/>
     <use style="fill:#0000ff;stroke:#0000ff;" x="199.43878" xlink:href="#m678ef2bd27" y="90.533984"/>
     <use style="fill:#0000ff;stroke:#0000ff;" x="200.756372" xlink:href="#m678ef2bd27" y="99.106657"/>
     <use style="fill:#0000ff;stroke:#0000ff;" x="202.073963" xlink:href="#m678ef2bd27" y="74.235506"/>
     <use style="fill:#0000ff;stroke:#0000ff;" x="203.391555" xlink:href="#m678ef2bd27" y="83.654088"/>
     <use style="fill:#0000ff;stroke:#0000ff;" x="204.709146" xlink:href="#m678ef2bd27" y="79.716921"/>
     <use style="fill:#0000ff;stroke:#0000ff;" x="206.026738" xlink:href="#m678ef2bd27" y="167.87463"/>
     <use style="fill:#0000ff;stroke:#0000ff;" x="207.344329" xlink:href="#m678ef2bd27" y="167.87463"/>
     <use style="fill:#0000ff;stroke:#0000ff;" x="208.661921" xlink:href="#m678ef2bd27" y="167.87463"/>
     <use style="fill:#0000ff;stroke:#0000ff;" x="209.979512" xlink:href="#m678ef2bd27" y="167.87463"/>
     <use style="fill:#0000ff;stroke:#0000ff;" x="211.297104" xlink:href="#m678ef2bd27" y="167.87463"/>
     <use style="fill:#0000ff;stroke:#0000ff;" x="212.614695" xlink:href="#m678ef2bd27" y="78.309844"/>
     <use style="fill:#0000ff;stroke:#0000ff;" x="213.932287" xlink:href="#m678ef2bd27" y="71.43567"/>
     <use style="fill:#0000ff;stroke:#0000ff;" x="215.249878" xlink:href="#m678ef2bd27" y="74.389094"/>
     <use style="fill:#0000ff;stroke:#0000ff;" x="216.56747" xlink:href="#m678ef2bd27" y="68.219269"/>
     <use style="fill:#0000ff;stroke:#0000ff;" x="217.885061" xlink:href="#m678ef2bd27" y="56.25674"/>
     <use style="fill:#0000ff;stroke:#0000ff;" x="219.202653" xlink:href="#m678ef2bd27" y="70.062344"/>
     <use style="fill:#0000ff;stroke:#0000ff;" x="220.520244" xlink:href="#m678ef2bd27" y="62.350531"/>
     <use style="fill:#0000ff;stroke:#0000ff;" x="221.837836" xlink:href="#m678ef2bd27" y="74.927601"/>
     <use style="fill:#0000ff;stroke:#0000ff;" x="223.155427" xlink:href="#m678ef2bd27" y="58.985252"/>
     <use style="fill:#0000ff;stroke:#0000ff;" x="224.473019" xlink:href="#m678ef2bd27" y="70.951465"/>
     <use style="fill:#0000ff;stroke:#0000ff;" x="225.79061" xlink:href="#m678ef2bd27" y="167.87463"/>
     <use style="fill:#0000ff;stroke:#0000ff;" x="227.108202" xlink:href="#m678ef2bd27" y="167.87463"/>
     <use style="fill:#0000ff;stroke:#0000ff;" x="228.425793" xlink:href="#m678ef2bd27" y="84.296333"/>
     <use style="fill:#0000ff;stroke:#0000ff;" x="229.743385" xlink:href="#m678ef2bd27" y="70.301924"/>
     <use style="fill:#0000ff;stroke:#0000ff;" x="231.060976" xlink:href="#m678ef2bd27" y="74.983679"/>
     <use style="fill:#0000ff;stroke:#0000ff;" x="232.378568" xlink:href="#m678ef2bd27" y="77.563971"/>
     <use style="fill:#0000ff;stroke:#0000ff;" x="233.696159" xlink:href="#m678ef2bd27" y="75.331256"/>
     <use style="fill:#0000ff;stroke:#0000ff;" x="235.013751" xlink:href="#m678ef2bd27" y="68.674792"/>
     <use style="fill:#0000ff;stroke:#0000ff;" x="236.331342" xlink:href="#m678ef2bd27" y="67.419828"/>
     <use style="fill:#0000ff;stroke:#0000ff;" x="237.648934" xlink:href="#m678ef2bd27" y="79.45006"/>
     <use style="fill:#0000ff;stroke:#0000ff;" x="238.966525" xlink:href="#m678ef2bd27" y="167.87463"/>
     <use style="fill:#0000ff;stroke:#0000ff;" x="240.284117" xlink:href="#m678ef2bd27" y="70.081626"/>
     <use style="fill:#0000ff;stroke:#0000ff;" x="241.601708" xlink:href="#m678ef2bd27" y="167.87463"/>
     <use style="fill:#0000ff;stroke:#0000ff;" x="242.9193" xlink:href="#m678ef2bd27" y="167.87463"/>
     <use style="fill:#0000ff;stroke:#0000ff;" x="244.236891" xlink:href="#m678ef2bd27" y="167.87463"/>
     <use style="fill:#0000ff;stroke:#0000ff;" x="245.554483" xlink:href="#m678ef2bd27" y="167.87463"/>
     <use style="fill:#0000ff;stroke:#0000ff;" x="246.872074" xlink:href="#m678ef2bd27" y="167.87463"/>
     <use style="fill:#0000ff;stroke:#0000ff;" x="248.189666" xlink:href="#m678ef2bd27" y="80.143886"/>
     <use style="fill:#0000ff;stroke:#0000ff;" x="249.507257" xlink:href="#m678ef2bd27" y="76.674289"/>
     <use style="fill:#0000ff;stroke:#0000ff;" x="250.824849" xlink:href="#m678ef2bd27" y="73.293312"/>
     <use style="fill:#0000ff;stroke:#0000ff;" x="252.14244" xlink:href="#m678ef2bd27" y="84.378844"/>
     <use style="fill:#0000ff;stroke:#0000ff;" x="253.460032" xlink:href="#m678ef2bd27" y="79.397295"/>
     <use style="fill:#0000ff;stroke:#0000ff;" x="254.777623" xlink:href="#m678ef2bd27" y="67.777806"/>
     <use style="fill:#0000ff;stroke:#0000ff;" x="256.095215" xlink:href="#m678ef2bd27" y="82.677755"/>
     <use style="fill:#0000ff;stroke:#0000ff;" x="257.412806" xlink:href="#m678ef2bd27" y="80.955022"/>
     <use style="fill:#0000ff;stroke:#0000ff;" x="258.730398" xlink:href="#m678ef2bd27" y="92.250643"/>
     <use style="fill:#0000ff;stroke:#0000ff;" x="260.047989" xlink:href="#m678ef2bd27" y="86.966793"/>
     <use style="fill:#0000ff;stroke:#0000ff;" x="261.365581" xlink:href="#m678ef2bd27" y="167.87463"/>
     <use style="fill:#0000ff;stroke:#0000ff;" x="262.683172" xlink:href="#m678ef2bd27" y="167.87463"/>
     <use style="fill:#0000ff;stroke:#0000ff;" x="264.000764" xlink:href="#m678ef2bd27" y="88.638832"/>
     <use style="fill:#0000ff;stroke:#0000ff;" x="265.318355" xlink:href="#m678ef2bd27" y="66.421036"/>
     <use style="fill:#0000ff;stroke:#0000ff;" x="266.635947" xlink:href="#m678ef2bd27" y="167.87463"/>
     <use style="fill:#0000ff;stroke:#0000ff;" x="267.953538" xlink:href="#m678ef2bd27" y="98.525805"/>
     <use style="fill:#0000ff;stroke:#0000ff;" x="269.27113" xlink:href="#m678ef2bd27" y="107.75885"/>
     <use style="fill:#0000ff;stroke:#0000ff;" x="270.588721" xlink:href="#m678ef2bd27" y="87.186576"/>
     <use style="fill:#0000ff;stroke:#0000ff;" x="271.906313" xlink:href="#m678ef2bd27" y="81.091968"/>
     <use style="fill:#0000ff;stroke:#0000ff;" x="273.223904" xlink:href="#m678ef2bd27" y="85.525843"/>
     <use style="fill:#0000ff;stroke:#0000ff;" x="274.541496" xlink:href="#m678ef2bd27" y="87.952479"/>
     <use style="fill:#0000ff;stroke:#0000ff;" x="275.859087" xlink:href="#m678ef2bd27" y="91.886532"/>
     <use style="fill:#0000ff;stroke:#0000ff;" x="277.176679" xlink:href="#m678ef2bd27" y="167.87463"/>
     <use style="fill:#0000ff;stroke:#0000ff;" x="278.49427" xlink:href="#m678ef2bd27" y="167.87463"/>
     <use style="fill:#0000ff;stroke:#0000ff;" x="279.811862" xlink:href="#m678ef2bd27" y="167.87463"/>
     <use style="fill:#0000ff;stroke:#0000ff;" x="281.129453" xlink:href="#m678ef2bd27" y="167.87463"/>
     <use style="fill:#0000ff;stroke:#0000ff;" x="282.447045" xlink:href="#m678ef2bd27" y="96.336344"/>
     <use style="fill:#0000ff;stroke:#0000ff;" x="283.764636" xlink:href="#m678ef2bd27" y="101.706627"/>
     <use style="fill:#0000ff;stroke:#0000ff;" x="285.082228" xlink:href="#m678ef2bd27" y="167.87463"/>
     <use style="fill:#0000ff;stroke:#0000ff;" x="286.399819" xlink:href="#m678ef2bd27" y="167.87463"/>
     <use style="fill:#0000ff;stroke:#0000ff;" x="287.717411" xlink:href="#m678ef2bd27" y="116.306165"/>
     <use style="fill:#0000ff;stroke:#0000ff;" x="289.035002" xlink:href="#m678ef2bd27" y="101.475853"/>
     <use style="fill:#0000ff;stroke:#0000ff;" x="290.352594" xlink:href="#m678ef2bd27" y="109.429153"/>
     <use style="fill:#0000ff;stroke:#0000ff;" x="291.670185" xlink:href="#m678ef2bd27" y="167.87463"/>
     <use style="fill:#0000ff;stroke:#0000ff;" x="292.987777" xlink:href="#m678ef2bd27" y="167.87463"/>
     <use style="fill:#0000ff;stroke:#0000ff;" x="294.305368" xlink:href="#m678ef2bd27" y="127.185577"/>
     <use style="fill:#0000ff;stroke:#0000ff;" x="295.62296" xlink:href="#m678ef2bd27" y="167.87463"/>
     <use style="fill:#0000ff;stroke:#0000ff;" x="296.940551" xlink:href="#m678ef2bd27" y="167.87463"/>
     <use style="fill:#0000ff;stroke:#0000ff;" x="298.258143" xlink:href="#m678ef2bd27" y="167.87463"/>
     <use style="fill:#0000ff;stroke:#0000ff;" x="299.575734" xlink:href="#m678ef2bd27" y="167.87463"/>
     <use style="fill:#0000ff;stroke:#0000ff;" x="300.893326" xlink:href="#m678ef2bd27" y="167.87463"/>
     <use style="fill:#0000ff;stroke:#0000ff;" x="302.210917" xlink:href="#m678ef2bd27" y="167.87463"/>
     <use style="fill:#0000ff;stroke:#0000ff;" x="303.528509" xlink:href="#m678ef2bd27" y="167.87463"/>
     <use style="fill:#0000ff;stroke:#0000ff;" x="304.8461" xlink:href="#m678ef2bd27" y="167.87463"/>
     <use style="fill:#0000ff;stroke:#0000ff;" x="306.163692" xlink:href="#m678ef2bd27" y="167.87463"/>
     <use style="fill:#0000ff;stroke:#0000ff;" x="307.481283" xlink:href="#m678ef2bd27" y="167.87463"/>
     <use style="fill:#0000ff;stroke:#0000ff;" x="308.798875" xlink:href="#m678ef2bd27" y="167.87463"/>
     <use style="fill:#0000ff;stroke:#0000ff;" x="310.116466" xlink:href="#m678ef2bd27" y="167.87463"/>
     <use style="fill:#0000ff;stroke:#0000ff;" x="311.434058" xlink:href="#m678ef2bd27" y="167.87463"/>
     <use style="fill:#0000ff;stroke:#0000ff;" x="312.751649" xlink:href="#m678ef2bd27" y="167.87463"/>
     <use style="fill:#0000ff;stroke:#0000ff;" x="314.069241" xlink:href="#m678ef2bd27" y="167.87463"/>
     <use style="fill:#0000ff;stroke:#0000ff;" x="315.386832" xlink:href="#m678ef2bd27" y="167.87463"/>
     <use style="fill:#0000ff;stroke:#0000ff;" x="316.704424" xlink:href="#m678ef2bd27" y="167.87463"/>
     <use style="fill:#0000ff;stroke:#0000ff;" x="318.022015" xlink:href="#m678ef2bd27" y="167.87463"/>
     <use style="fill:#0000ff;stroke:#0000ff;" x="319.339607" xlink:href="#m678ef2bd27" y="167.87463"/>
     <use style="fill:#0000ff;stroke:#0000ff;" x="320.657198" xlink:href="#m678ef2bd27" y="167.87463"/>
     <use style="fill:#0000ff;stroke:#0000ff;" x="321.97479" xlink:href="#m678ef2bd27" y="167.87463"/>
     <use style="fill:#0000ff;stroke:#0000ff;" x="323.292381" xlink:href="#m678ef2bd27" y="167.87463"/>
     <use style="fill:#0000ff;stroke:#0000ff;" x="324.609973" xlink:href="#m678ef2bd27" y="167.87463"/>
     <use style="fill:#0000ff;stroke:#0000ff;" x="325.927564" xlink:href="#m678ef2bd27" y="167.87463"/>
     <use style="fill:#0000ff;stroke:#0000ff;" x="327.245156" xlink:href="#m678ef2bd27" y="167.87463"/>
     <use style="fill:#0000ff;stroke:#0000ff;" x="328.562747" xlink:href="#m678ef2bd27" y="167.87463"/>
     <use style="fill:#0000ff;stroke:#0000ff;" x="329.880339" xlink:href="#m678ef2bd27" y="167.87463"/>
     <use style="fill:#0000ff;stroke:#0000ff;" x="331.19793" xlink:href="#m678ef2bd27" y="167.87463"/>
     <use style="fill:#0000ff;stroke:#0000ff;" x="332.515522" xlink:href="#m678ef2bd27" y="167.87463"/>
     <use style="fill:#0000ff;stroke:#0000ff;" x="333.833113" xlink:href="#m678ef2bd27" y="167.87463"/>
     <use style="fill:#0000ff;stroke:#0000ff;" x="335.150705" xlink:href="#m678ef2bd27" y="167.87463"/>
     <use style="fill:#0000ff;stroke:#0000ff;" x="336.468296" xlink:href="#m678ef2bd27" y="167.87463"/>
     <use style="fill:#0000ff;stroke:#0000ff;" x="337.785888" xlink:href="#m678ef2bd27" y="167.87463"/>
     <use style="fill:#0000ff;stroke:#0000ff;" x="339.103479" xlink:href="#m678ef2bd27" y="167.87463"/>
     <use style="fill:#0000ff;stroke:#0000ff;" x="340.421071" xlink:href="#m678ef2bd27" y="167.87463"/>
     <use style="fill:#0000ff;stroke:#0000ff;" x="341.738662" xlink:href="#m678ef2bd27" y="167.87463"/>
     <use style="fill:#0000ff;stroke:#0000ff;" x="343.056254" xlink:href="#m678ef2bd27" y="167.87463"/>
     <use style="fill:#0000ff;stroke:#0000ff;" x="344.373845" xlink:href="#m678ef2bd27" y="167.87463"/>
     <use style="fill:#0000ff;stroke:#0000ff;" x="345.691437" xlink:href="#m678ef2bd27" y="167.87463"/>
     <use style="fill:#0000ff;stroke:#0000ff;" x="347.009028" xlink:href="#m678ef2bd27" y="167.87463"/>
     <use style="fill:#0000ff;stroke:#0000ff;" x="348.32662" xlink:href="#m678ef2bd27" y="167.87463"/>
     <use style="fill:#0000ff;stroke:#0000ff;" x="349.644211" xlink:href="#m678ef2bd27" y="167.87463"/>
     <use style="fill:#0000ff;stroke:#0000ff;" x="350.961803" xlink:href="#m678ef2bd27" y="167.87463"/>
     <use style="fill:#0000ff;stroke:#0000ff;" x="352.279394" xlink:href="#m678ef2bd27" y="167.87463"/>
     <use style="fill:#0000ff;stroke:#0000ff;" x="353.596986" xlink:href="#m678ef2bd27" y="167.87463"/>
     <use style="fill:#0000ff;stroke:#0000ff;" x="354.914577" xlink:href="#m678ef2bd27" y="167.87463"/>
     <use style="fill:#0000ff;stroke:#0000ff;" x="356.232169" xlink:href="#m678ef2bd27" y="167.87463"/>
     <use style="fill:#0000ff;stroke:#0000ff;" x="357.54976" xlink:href="#m678ef2bd27" y="167.87463"/>
     <use style="fill:#0000ff;stroke:#0000ff;" x="358.867352" xlink:href="#m678ef2bd27" y="167.87463"/>
     <use style="fill:#0000ff;stroke:#0000ff;" x="360.184943" xlink:href="#m678ef2bd27" y="167.87463"/>
    </g>
   </g>
   <g id="matplotlib.axis_1">
    <g id="xtick_1">
     <g id="line2d_1">
      <defs>
       <path d="M 0 0 
L 0 3.5 
" id="m8c3d274167" style="stroke:#000000;stroke-width:0.8;"/>
      </defs>
      <g>
       <use style="stroke:#000000;stroke-width:0.8;" x="55.821307" xlink:href="#m8c3d274167" y="175.43463"/>
      </g>
     </g>
     <g id="text_1">
      <!-- 0 -->
      <g transform="translate(52.640057 190.033067)scale(0.1 -0.1)">
       <defs>
        <path d="M 2034 4250 
Q 1547 4250 1301 3770 
Q 1056 3291 1056 2328 
Q 1056 1369 1301 889 
Q 1547 409 2034 409 
Q 2525 409 2770 889 
Q 3016 1369 3016 2328 
Q 3016 3291 2770 3770 
Q 2525 4250 2034 4250 
z
M 2034 4750 
Q 2819 4750 3233 4129 
Q 3647 3509 3647 2328 
Q 3647 1150 3233 529 
Q 2819 -91 2034 -91 
Q 1250 -91 836 529 
Q 422 1150 422 2328 
Q 422 3509 836 4129 
Q 1250 4750 2034 4750 
z
" id="DejaVuSans-30" transform="scale(0.015625)"/>
       </defs>
       <use xlink:href="#DejaVuSans-30"/>
      </g>
     </g>
    </g>
    <g id="xtick_2">
     <g id="line2d_2">
      <g>
       <use style="stroke:#000000;stroke-width:0.8;" x="95.349052" xlink:href="#m8c3d274167" y="175.43463"/>
      </g>
     </g>
     <g id="text_2">
      <!-- 5 -->
      <g transform="translate(92.167802 190.033067)scale(0.1 -0.1)">
       <defs>
        <path d="M 691 4666 
L 3169 4666 
L 3169 4134 
L 1269 4134 
L 1269 2991 
Q 1406 3038 1543 3061 
Q 1681 3084 1819 3084 
Q 2600 3084 3056 2656 
Q 3513 2228 3513 1497 
Q 3513 744 3044 326 
Q 2575 -91 1722 -91 
Q 1428 -91 1123 -41 
Q 819 9 494 109 
L 494 744 
Q 775 591 1075 516 
Q 1375 441 1709 441 
Q 2250 441 2565 725 
Q 2881 1009 2881 1497 
Q 2881 1984 2565 2268 
Q 2250 2553 1709 2553 
Q 1456 2553 1204 2497 
Q 953 2441 691 2322 
L 691 4666 
z
" id="DejaVuSans-35" transform="scale(0.015625)"/>
       </defs>
       <use xlink:href="#DejaVuSans-35"/>
      </g>
     </g>
    </g>
    <g id="xtick_3">
     <g id="line2d_3">
      <g>
       <use style="stroke:#000000;stroke-width:0.8;" x="134.876797" xlink:href="#m8c3d274167" y="175.43463"/>
      </g>
     </g>
     <g id="text_3">
      <!-- 10 -->
      <g transform="translate(128.514297 190.033067)scale(0.1 -0.1)">
       <defs>
        <path d="M 794 531 
L 1825 531 
L 1825 4091 
L 703 3866 
L 703 4441 
L 1819 4666 
L 2450 4666 
L 2450 531 
L 3481 531 
L 3481 0 
L 794 0 
L 794 531 
z
" id="DejaVuSans-31" transform="scale(0.015625)"/>
       </defs>
       <use xlink:href="#DejaVuSans-31"/>
       <use x="63.623047" xlink:href="#DejaVuSans-30"/>
      </g>
     </g>
    </g>
    <g id="xtick_4">
     <g id="line2d_4">
      <g>
       <use style="stroke:#000000;stroke-width:0.8;" x="174.404542" xlink:href="#m8c3d274167" y="175.43463"/>
      </g>
     </g>
     <g id="text_4">
      <!-- 15 -->
      <g transform="translate(168.042042 190.033067)scale(0.1 -0.1)">
       <use xlink:href="#DejaVuSans-31"/>
       <use x="63.623047" xlink:href="#DejaVuSans-35"/>
      </g>
     </g>
    </g>
    <g id="xtick_5">
     <g id="line2d_5">
      <g>
       <use style="stroke:#000000;stroke-width:0.8;" x="213.932287" xlink:href="#m8c3d274167" y="175.43463"/>
      </g>
     </g>
     <g id="text_5">
      <!-- 20 -->
      <g transform="translate(207.569787 190.033067)scale(0.1 -0.1)">
       <defs>
        <path d="M 1228 531 
L 3431 531 
L 3431 0 
L 469 0 
L 469 531 
Q 828 903 1448 1529 
Q 2069 2156 2228 2338 
Q 2531 2678 2651 2914 
Q 2772 3150 2772 3378 
Q 2772 3750 2511 3984 
Q 2250 4219 1831 4219 
Q 1534 4219 1204 4116 
Q 875 4013 500 3803 
L 500 4441 
Q 881 4594 1212 4672 
Q 1544 4750 1819 4750 
Q 2544 4750 2975 4387 
Q 3406 4025 3406 3419 
Q 3406 3131 3298 2873 
Q 3191 2616 2906 2266 
Q 2828 2175 2409 1742 
Q 1991 1309 1228 531 
z
" id="DejaVuSans-32" transform="scale(0.015625)"/>
       </defs>
       <use xlink:href="#DejaVuSans-32"/>
       <use x="63.623047" xlink:href="#DejaVuSans-30"/>
      </g>
     </g>
    </g>
    <g id="xtick_6">
     <g id="line2d_6">
      <g>
       <use style="stroke:#000000;stroke-width:0.8;" x="253.460032" xlink:href="#m8c3d274167" y="175.43463"/>
      </g>
     </g>
     <g id="text_6">
      <!-- 25 -->
      <g transform="translate(247.097532 190.033067)scale(0.1 -0.1)">
       <use xlink:href="#DejaVuSans-32"/>
       <use x="63.623047" xlink:href="#DejaVuSans-35"/>
      </g>
     </g>
    </g>
    <g id="xtick_7">
     <g id="line2d_7">
      <g>
       <use style="stroke:#000000;stroke-width:0.8;" x="292.987777" xlink:href="#m8c3d274167" y="175.43463"/>
      </g>
     </g>
     <g id="text_7">
      <!-- 30 -->
      <g transform="translate(286.625277 190.033067)scale(0.1 -0.1)">
       <defs>
        <path d="M 2597 2516 
Q 3050 2419 3304 2112 
Q 3559 1806 3559 1356 
Q 3559 666 3084 287 
Q 2609 -91 1734 -91 
Q 1441 -91 1130 -33 
Q 819 25 488 141 
L 488 750 
Q 750 597 1062 519 
Q 1375 441 1716 441 
Q 2309 441 2620 675 
Q 2931 909 2931 1356 
Q 2931 1769 2642 2001 
Q 2353 2234 1838 2234 
L 1294 2234 
L 1294 2753 
L 1863 2753 
Q 2328 2753 2575 2939 
Q 2822 3125 2822 3475 
Q 2822 3834 2567 4026 
Q 2313 4219 1838 4219 
Q 1578 4219 1281 4162 
Q 984 4106 628 3988 
L 628 4550 
Q 988 4650 1302 4700 
Q 1616 4750 1894 4750 
Q 2613 4750 3031 4423 
Q 3450 4097 3450 3541 
Q 3450 3153 3228 2886 
Q 3006 2619 2597 2516 
z
" id="DejaVuSans-33" transform="scale(0.015625)"/>
       </defs>
       <use xlink:href="#DejaVuSans-33"/>
       <use x="63.623047" xlink:href="#DejaVuSans-30"/>
      </g>
     </g>
    </g>
    <g id="xtick_8">
     <g id="line2d_8">
      <g>
       <use style="stroke:#000000;stroke-width:0.8;" x="332.515522" xlink:href="#m8c3d274167" y="175.43463"/>
      </g>
     </g>
     <g id="text_8">
      <!-- 35 -->
      <g transform="translate(326.153022 190.033067)scale(0.1 -0.1)">
       <use xlink:href="#DejaVuSans-33"/>
       <use x="63.623047" xlink:href="#DejaVuSans-35"/>
      </g>
     </g>
    </g>
    <g id="xtick_9">
     <g id="line2d_9">
      <g>
       <use style="stroke:#000000;stroke-width:0.8;" x="372.043267" xlink:href="#m8c3d274167" y="175.43463"/>
      </g>
     </g>
     <g id="text_9">
      <!-- 40 -->
      <g transform="translate(365.680767 190.033067)scale(0.1 -0.1)">
       <defs>
        <path d="M 2419 4116 
L 825 1625 
L 2419 1625 
L 2419 4116 
z
M 2253 4666 
L 3047 4666 
L 3047 1625 
L 3713 1625 
L 3713 1100 
L 3047 1100 
L 3047 0 
L 2419 0 
L 2419 1100 
L 313 1100 
L 313 1709 
L 2253 4666 
z
" id="DejaVuSans-34" transform="scale(0.015625)"/>
       </defs>
       <use xlink:href="#DejaVuSans-34"/>
       <use x="63.623047" xlink:href="#DejaVuSans-30"/>
      </g>
     </g>
    </g>
    <g id="text_10">
     <!-- time (min) -->
     <g transform="translate(181.788281 203.711192)scale(0.1 -0.1)">
      <defs>
       <path d="M 1172 4494 
L 1172 3500 
L 2356 3500 
L 2356 3053 
L 1172 3053 
L 1172 1153 
Q 1172 725 1289 603 
Q 1406 481 1766 481 
L 2356 481 
L 2356 0 
L 1766 0 
Q 1100 0 847 248 
Q 594 497 594 1153 
L 594 3053 
L 172 3053 
L 172 3500 
L 594 3500 
L 594 4494 
L 1172 4494 
z
" id="DejaVuSans-74" transform="scale(0.015625)"/>
       <path d="M 603 3500 
L 1178 3500 
L 1178 0 
L 603 0 
L 603 3500 
z
M 603 4863 
L 1178 4863 
L 1178 4134 
L 603 4134 
L 603 4863 
z
" id="DejaVuSans-69" transform="scale(0.015625)"/>
       <path d="M 3328 2828 
Q 3544 3216 3844 3400 
Q 4144 3584 4550 3584 
Q 5097 3584 5394 3201 
Q 5691 2819 5691 2113 
L 5691 0 
L 5113 0 
L 5113 2094 
Q 5113 2597 4934 2840 
Q 4756 3084 4391 3084 
Q 3944 3084 3684 2787 
Q 3425 2491 3425 1978 
L 3425 0 
L 2847 0 
L 2847 2094 
Q 2847 2600 2669 2842 
Q 2491 3084 2119 3084 
Q 1678 3084 1418 2786 
Q 1159 2488 1159 1978 
L 1159 0 
L 581 0 
L 581 3500 
L 1159 3500 
L 1159 2956 
Q 1356 3278 1631 3431 
Q 1906 3584 2284 3584 
Q 2666 3584 2933 3390 
Q 3200 3197 3328 2828 
z
" id="DejaVuSans-6d" transform="scale(0.015625)"/>
       <path d="M 3597 1894 
L 3597 1613 
L 953 1613 
Q 991 1019 1311 708 
Q 1631 397 2203 397 
Q 2534 397 2845 478 
Q 3156 559 3463 722 
L 3463 178 
Q 3153 47 2828 -22 
Q 2503 -91 2169 -91 
Q 1331 -91 842 396 
Q 353 884 353 1716 
Q 353 2575 817 3079 
Q 1281 3584 2069 3584 
Q 2775 3584 3186 3129 
Q 3597 2675 3597 1894 
z
M 3022 2063 
Q 3016 2534 2758 2815 
Q 2500 3097 2075 3097 
Q 1594 3097 1305 2825 
Q 1016 2553 972 2059 
L 3022 2063 
z
" id="DejaVuSans-65" transform="scale(0.015625)"/>
       <path id="DejaVuSans-20" transform="scale(0.015625)"/>
       <path d="M 1984 4856 
Q 1566 4138 1362 3434 
Q 1159 2731 1159 2009 
Q 1159 1288 1364 580 
Q 1569 -128 1984 -844 
L 1484 -844 
Q 1016 -109 783 600 
Q 550 1309 550 2009 
Q 550 2706 781 3412 
Q 1013 4119 1484 4856 
L 1984 4856 
z
" id="DejaVuSans-28" transform="scale(0.015625)"/>
       <path d="M 3513 2113 
L 3513 0 
L 2938 0 
L 2938 2094 
Q 2938 2591 2744 2837 
Q 2550 3084 2163 3084 
Q 1697 3084 1428 2787 
Q 1159 2491 1159 1978 
L 1159 0 
L 581 0 
L 581 3500 
L 1159 3500 
L 1159 2956 
Q 1366 3272 1645 3428 
Q 1925 3584 2291 3584 
Q 2894 3584 3203 3211 
Q 3513 2838 3513 2113 
z
" id="DejaVuSans-6e" transform="scale(0.015625)"/>
       <path d="M 513 4856 
L 1013 4856 
Q 1481 4119 1714 3412 
Q 1947 2706 1947 2009 
Q 1947 1309 1714 600 
Q 1481 -109 1013 -844 
L 513 -844 
Q 928 -128 1133 580 
Q 1338 1288 1338 2009 
Q 1338 2731 1133 3434 
Q 928 4138 513 4856 
z
" id="DejaVuSans-29" transform="scale(0.015625)"/>
      </defs>
      <use xlink:href="#DejaVuSans-74"/>
      <use x="39.208984" xlink:href="#DejaVuSans-69"/>
      <use x="66.992188" xlink:href="#DejaVuSans-6d"/>
      <use x="164.404297" xlink:href="#DejaVuSans-65"/>
      <use x="225.927734" xlink:href="#DejaVuSans-20"/>
      <use x="257.714844" xlink:href="#DejaVuSans-28"/>
      <use x="296.728516" xlink:href="#DejaVuSans-6d"/>
      <use x="394.140625" xlink:href="#DejaVuSans-69"/>
      <use x="421.923828" xlink:href="#DejaVuSans-6e"/>
      <use x="485.302734" xlink:href="#DejaVuSans-29"/>
     </g>
    </g>
   </g>
   <g id="matplotlib.axis_2">
    <g id="ytick_1">
     <g id="line2d_10">
      <defs>
       <path d="M 0 0 
L -3.5 0 
" id="m25e67a1d92" style="stroke:#000000;stroke-width:0.8;"/>
      </defs>
      <g>
       <use style="stroke:#000000;stroke-width:0.8;" x="40.603125" xlink:href="#m25e67a1d92" y="167.87463"/>
      </g>
     </g>
     <g id="text_11">
      <!-- 0 -->
      <g transform="translate(27.240625 171.673849)scale(0.1 -0.1)">
       <use xlink:href="#DejaVuSans-30"/>
      </g>
     </g>
    </g>
    <g id="ytick_2">
     <g id="line2d_11">
      <g>
       <use style="stroke:#000000;stroke-width:0.8;" x="40.603125" xlink:href="#m25e67a1d92" y="128.655777"/>
      </g>
     </g>
     <g id="text_12">
      <!-- 10 -->
      <g transform="translate(20.878125 132.454996)scale(0.1 -0.1)">
       <use xlink:href="#DejaVuSans-31"/>
       <use x="63.623047" xlink:href="#DejaVuSans-30"/>
      </g>
     </g>
    </g>
    <g id="ytick_3">
     <g id="line2d_12">
      <g>
       <use style="stroke:#000000;stroke-width:0.8;" x="40.603125" xlink:href="#m25e67a1d92" y="89.436924"/>
      </g>
     </g>
     <g id="text_13">
      <!-- 20 -->
      <g transform="translate(20.878125 93.236143)scale(0.1 -0.1)">
       <use xlink:href="#DejaVuSans-32"/>
       <use x="63.623047" xlink:href="#DejaVuSans-30"/>
      </g>
     </g>
    </g>
    <g id="ytick_4">
     <g id="line2d_13">
      <g>
       <use style="stroke:#000000;stroke-width:0.8;" x="40.603125" xlink:href="#m25e67a1d92" y="50.218072"/>
      </g>
     </g>
     <g id="text_14">
      <!-- 30 -->
      <g transform="translate(20.878125 54.01729)scale(0.1 -0.1)">
       <use xlink:href="#DejaVuSans-33"/>
       <use x="63.623047" xlink:href="#DejaVuSans-30"/>
      </g>
     </g>
    </g>
    <g id="ytick_5">
     <g id="line2d_14">
      <g>
       <use style="stroke:#000000;stroke-width:0.8;" x="40.603125" xlink:href="#m25e67a1d92" y="10.999219"/>
      </g>
     </g>
     <g id="text_15">
      <!-- 40 -->
      <g transform="translate(20.878125 14.798437)scale(0.1 -0.1)">
       <use xlink:href="#DejaVuSans-34"/>
       <use x="63.623047" xlink:href="#DejaVuSans-30"/>
      </g>
     </g>
    </g>
    <g id="text_16">
     <!-- peak amplitde  -->
     <g transform="translate(14.798438 129.760567)rotate(-90)scale(0.1 -0.1)">
      <defs>
       <path d="M 1159 525 
L 1159 -1331 
L 581 -1331 
L 581 3500 
L 1159 3500 
L 1159 2969 
Q 1341 3281 1617 3432 
Q 1894 3584 2278 3584 
Q 2916 3584 3314 3078 
Q 3713 2572 3713 1747 
Q 3713 922 3314 415 
Q 2916 -91 2278 -91 
Q 1894 -91 1617 61 
Q 1341 213 1159 525 
z
M 3116 1747 
Q 3116 2381 2855 2742 
Q 2594 3103 2138 3103 
Q 1681 3103 1420 2742 
Q 1159 2381 1159 1747 
Q 1159 1113 1420 752 
Q 1681 391 2138 391 
Q 2594 391 2855 752 
Q 3116 1113 3116 1747 
z
" id="DejaVuSans-70" transform="scale(0.015625)"/>
       <path d="M 2194 1759 
Q 1497 1759 1228 1600 
Q 959 1441 959 1056 
Q 959 750 1161 570 
Q 1363 391 1709 391 
Q 2188 391 2477 730 
Q 2766 1069 2766 1631 
L 2766 1759 
L 2194 1759 
z
M 3341 1997 
L 3341 0 
L 2766 0 
L 2766 531 
Q 2569 213 2275 61 
Q 1981 -91 1556 -91 
Q 1019 -91 701 211 
Q 384 513 384 1019 
Q 384 1609 779 1909 
Q 1175 2209 1959 2209 
L 2766 2209 
L 2766 2266 
Q 2766 2663 2505 2880 
Q 2244 3097 1772 3097 
Q 1472 3097 1187 3025 
Q 903 2953 641 2809 
L 641 3341 
Q 956 3463 1253 3523 
Q 1550 3584 1831 3584 
Q 2591 3584 2966 3190 
Q 3341 2797 3341 1997 
z
" id="DejaVuSans-61" transform="scale(0.015625)"/>
       <path d="M 581 4863 
L 1159 4863 
L 1159 1991 
L 2875 3500 
L 3609 3500 
L 1753 1863 
L 3688 0 
L 2938 0 
L 1159 1709 
L 1159 0 
L 581 0 
L 581 4863 
z
" id="DejaVuSans-6b" transform="scale(0.015625)"/>
       <path d="M 603 4863 
L 1178 4863 
L 1178 0 
L 603 0 
L 603 4863 
z
" id="DejaVuSans-6c" transform="scale(0.015625)"/>
       <path d="M 2906 2969 
L 2906 4863 
L 3481 4863 
L 3481 0 
L 2906 0 
L 2906 525 
Q 2725 213 2448 61 
Q 2172 -91 1784 -91 
Q 1150 -91 751 415 
Q 353 922 353 1747 
Q 353 2572 751 3078 
Q 1150 3584 1784 3584 
Q 2172 3584 2448 3432 
Q 2725 3281 2906 2969 
z
M 947 1747 
Q 947 1113 1208 752 
Q 1469 391 1925 391 
Q 2381 391 2643 752 
Q 2906 1113 2906 1747 
Q 2906 2381 2643 2742 
Q 2381 3103 1925 3103 
Q 1469 3103 1208 2742 
Q 947 2381 947 1747 
z
" id="DejaVuSans-64" transform="scale(0.015625)"/>
      </defs>
      <use xlink:href="#DejaVuSans-70"/>
      <use x="63.476562" xlink:href="#DejaVuSans-65"/>
      <use x="125" xlink:href="#DejaVuSans-61"/>
      <use x="186.279297" xlink:href="#DejaVuSans-6b"/>
      <use x="244.189453" xlink:href="#DejaVuSans-20"/>
      <use x="275.976562" xlink:href="#DejaVuSans-61"/>
      <use x="337.255859" xlink:href="#DejaVuSans-6d"/>
      <use x="434.667969" xlink:href="#DejaVuSans-70"/>
      <use x="498.144531" xlink:href="#DejaVuSans-6c"/>
      <use x="525.927734" xlink:href="#DejaVuSans-69"/>
      <use x="553.710938" xlink:href="#DejaVuSans-74"/>
      <use x="592.919922" xlink:href="#DejaVuSans-64"/>
      <use x="656.396484" xlink:href="#DejaVuSans-65"/>
      <use x="717.919922" xlink:href="#DejaVuSans-20"/>
     </g>
    </g>
   </g>
   <g id="patch_3">
    <path d="M 40.603125 175.43463 
L 40.603125 9.11463 
" style="fill:none;stroke:#000000;stroke-linecap:square;stroke-linejoin:miter;stroke-width:0.8;"/>
   </g>
   <g id="patch_4">
    <path d="M 375.403125 175.43463 
L 375.403125 9.11463 
" style="fill:none;stroke:#000000;stroke-linecap:square;stroke-linejoin:miter;stroke-width:0.8;"/>
   </g>
   <g id="patch_5">
    <path d="M 40.603125 175.43463 
L 375.403125 175.43463 
" style="fill:none;stroke:#000000;stroke-linecap:square;stroke-linejoin:miter;stroke-width:0.8;"/>
   </g>
   <g id="patch_6">
    <path d="M 40.603125 9.11463 
L 375.403125 9.11463 
" style="fill:none;stroke:#000000;stroke-linecap:square;stroke-linejoin:miter;stroke-width:0.8;"/>
   </g>
  </g>
 </g>
 <defs>
  <clipPath id="p7c873480ef">
   <rect height="166.32" width="334.8" x="40.603125" y="9.11463"/>
  </clipPath>
 </defs>
</svg>
